<svg width="1185" height="1185" viewBox="0 0 1185 1185" fill="none" xmlns="http://www.w3.org/2000/svg">
<mask id="path-1-inside-1_208_8" fill="white">
<path d="M1091.22 405.858C1122.25 394.244 1157.15 409.943 1165.57 441.993C1198.71 568.177 1189.4 702.409 1138.08 823.572C1078.93 963.234 968.473 1074.89 829.458 1135.55C690.443 1196.21 533.459 1201.25 390.842 1149.63C248.224 1098 130.834 993.655 62.8509 858.071C-5.13208 722.488 -18.5306 565.995 25.4152 420.829C69.361 275.662 167.304 152.876 299.071 77.7615C430.838 2.64728 586.393 -19.0747 733.696 17.0699C861.487 48.4265 974.623 121.262 1055.91 223.305C1076.56 249.223 1068.27 286.577 1040.4 304.499L1032.4 309.641C1004.53 327.563 967.68 319.184 946.306 293.862C883.489 219.438 798.406 166.297 702.834 142.846C587.728 114.602 466.174 131.576 363.208 190.272C260.243 248.968 183.707 344.916 149.367 458.352C115.027 571.789 125.497 694.075 178.62 800.023C231.744 905.971 323.475 987.513 434.92 1027.85C546.364 1068.19 669.035 1064.25 777.665 1016.85C886.294 969.454 972.609 882.2 1018.83 773.065C1057.21 682.45 1065.52 582.479 1043.46 487.621C1035.95 455.345 1051.28 420.805 1082.32 409.191L1091.22 405.858Z"/>
</mask>
<path d="M1091.22 405.858C1122.25 394.244 1157.15 409.943 1165.57 441.993C1198.71 568.177 1189.4 702.409 1138.08 823.572C1078.93 963.234 968.473 1074.89 829.458 1135.55C690.443 1196.21 533.459 1201.25 390.842 1149.63C248.224 1098 130.834 993.655 62.8509 858.071C-5.13208 722.488 -18.5306 565.995 25.4152 420.829C69.361 275.662 167.304 152.876 299.071 77.7615C430.838 2.64728 586.393 -19.0747 733.696 17.0699C861.487 48.4265 974.623 121.262 1055.91 223.305C1076.56 249.223 1068.27 286.577 1040.4 304.499L1032.4 309.641C1004.53 327.563 967.68 319.184 946.306 293.862C883.489 219.438 798.406 166.297 702.834 142.846C587.728 114.602 466.174 131.576 363.208 190.272C260.243 248.968 183.707 344.916 149.367 458.352C115.027 571.789 125.497 694.075 178.62 800.023C231.744 905.971 323.475 987.513 434.92 1027.85C546.364 1068.19 669.035 1064.25 777.665 1016.85C886.294 969.454 972.609 882.2 1018.83 773.065C1057.21 682.45 1065.52 582.479 1043.46 487.621C1035.95 455.345 1051.28 420.805 1082.32 409.191L1091.22 405.858Z" stroke="url(#paint0_linear_208_8)" stroke-width="240" mask="url(#path-1-inside-1_208_8)"/>
<mask id="path-2-outside-2_208_8" maskUnits="userSpaceOnUse" x="388" y="516" width="406" height="150" fill="black">
<rect fill="white" x="388" y="516" width="406" height="150"/>
<path d="M389 574C389 566.533 390.333 559.6 393 553.2C395.8 546.8 399.6 541.333 404.4 536.8C409.2 532.133 414.867 528.533 421.4 526C427.933 523.333 435 522 442.6 522C450.333 522 457.467 523.333 464 526C470.533 528.533 476.2 532.067 481 536.6C485.8 541.133 489.533 546.533 492.2 552.8C494.867 558.933 496.2 565.667 496.2 573C496.2 579.533 495 586.267 492.6 593.2C490.333 600.133 487.267 606.733 483.4 613L452.6 662H410.2L440.4 619.2C438.933 620 436.533 620.4 433.2 620.4C426.667 620.4 420.667 619.2 415.2 616.8C409.867 614.4 405.2 611.133 401.2 607C397.333 602.733 394.333 597.8 392.2 592.2C390.067 586.467 389 580.4 389 574ZM424.2 572.6C424.2 575.133 424.667 577.533 425.6 579.8C426.533 581.933 427.867 583.867 429.6 585.6C431.333 587.2 433.267 588.467 435.4 589.4C437.667 590.333 440.133 590.8 442.8 590.8C445.333 590.8 447.733 590.333 450 589.4C452.267 588.467 454.2 587.2 455.8 585.6C457.533 584 458.867 582.133 459.8 580C460.733 577.733 461.2 575.333 461.2 572.8C461.2 567.733 459.4 563.467 455.8 560C452.333 556.4 448 554.6 442.8 554.6C440.133 554.6 437.667 555.067 435.4 556C433.267 556.933 431.333 558.2 429.6 559.8C427.867 561.4 426.533 563.333 425.6 565.6C424.667 567.733 424.2 570.067 424.2 572.6ZM612.239 612.8C612.239 620.267 610.839 627.2 608.039 633.6C605.372 640 601.639 645.533 596.839 650.2C592.039 654.733 586.372 658.333 579.839 661C573.306 663.533 566.239 664.8 558.639 664.8C550.906 664.8 543.772 663.533 537.239 661C530.706 658.333 525.039 654.733 520.239 650.2C515.439 645.667 511.706 640.333 509.039 634.2C506.372 627.933 505.039 621.133 505.039 613.8C505.039 607.267 506.172 600.533 508.439 593.6C510.839 586.667 513.972 580.067 517.839 573.8L548.839 524.8H590.639L560.239 568C560.906 567.733 561.839 567.467 563.039 567.2C564.372 566.8 565.906 566.6 567.639 566.6C574.172 566.6 580.172 567.8 585.639 570.2C591.106 572.6 595.772 575.867 599.639 580C603.639 584.133 606.706 589.067 608.839 594.8C611.106 600.4 612.239 606.4 612.239 612.8ZM577.039 614.2C577.039 611.667 576.572 609.333 575.639 607.2C574.706 604.933 573.372 603 571.639 601.4C569.906 599.667 567.906 598.333 565.639 597.4C563.372 596.467 560.972 596 558.439 596C555.906 596 553.506 596.467 551.239 597.4C548.972 598.333 546.972 599.6 545.239 601.2C543.639 602.8 542.372 604.733 541.439 607C540.506 609.133 540.039 611.467 540.039 614C540.039 619.067 541.772 623.4 545.239 627C548.839 630.467 553.239 632.2 558.439 632.2C560.972 632.2 563.372 631.733 565.639 630.8C567.906 629.867 569.906 628.6 571.639 627C573.372 625.4 574.706 623.533 575.639 621.4C576.572 619.133 577.039 616.733 577.039 614.2ZM657.956 517.2C669.156 517.2 677.623 521.133 683.356 529C689.223 536.733 692.156 547.667 692.156 561.8C692.156 575.933 689.423 587 683.956 595C678.49 602.867 669.823 606.8 657.956 606.8C650.623 606.8 644.423 605 639.356 601.4C634.423 597.8 630.69 592.667 628.156 586C625.623 579.2 624.356 571.133 624.356 561.8C624.356 547.667 627.023 536.733 632.356 529C637.69 521.133 646.223 517.2 657.956 517.2ZM658.156 537.6C654.956 537.6 652.623 539.6 651.156 543.6C649.69 547.6 648.956 553.733 648.956 562C648.956 570.133 649.69 576.267 651.156 580.4C652.623 584.533 654.956 586.6 658.156 586.6C661.356 586.6 663.69 584.533 665.156 580.4C666.756 576.267 667.556 570.133 667.556 562C667.556 553.733 666.756 547.6 665.156 543.6C663.69 539.6 661.356 537.6 658.156 537.6ZM759.356 519.2L680.156 662H656.756L735.956 519.2H759.356ZM757.956 574.2C765.423 574.2 771.69 576 776.756 579.6C781.823 583.067 785.623 588.133 788.156 594.8C790.823 601.333 792.156 609.333 792.156 618.8C792.156 632.933 789.423 644 783.956 652C778.49 659.867 769.823 663.8 757.956 663.8C750.623 663.8 744.423 662 739.356 658.4C734.423 654.8 730.69 649.667 728.156 643C725.623 636.2 724.356 628.133 724.356 618.8C724.356 604.667 727.023 593.733 732.356 586C737.69 578.133 746.223 574.2 757.956 574.2ZM758.156 594.6C754.956 594.6 752.623 596.6 751.156 600.6C749.69 604.6 748.956 610.733 748.956 619C748.956 627.133 749.69 633.267 751.156 637.4C752.623 641.533 754.956 643.6 758.156 643.6C761.356 643.6 763.69 641.6 765.156 637.6C766.756 633.467 767.556 627.267 767.556 619C767.556 610.733 766.756 604.6 765.156 600.6C763.69 596.6 761.356 594.6 758.156 594.6Z"/>
</mask>
<path d="M389 574C389 566.533 390.333 559.6 393 553.2C395.8 546.8 399.6 541.333 404.4 536.8C409.2 532.133 414.867 528.533 421.4 526C427.933 523.333 435 522 442.6 522C450.333 522 457.467 523.333 464 526C470.533 528.533 476.2 532.067 481 536.6C485.8 541.133 489.533 546.533 492.2 552.8C494.867 558.933 496.2 565.667 496.2 573C496.2 579.533 495 586.267 492.6 593.2C490.333 600.133 487.267 606.733 483.4 613L452.6 662H410.2L440.4 619.2C438.933 620 436.533 620.4 433.2 620.4C426.667 620.4 420.667 619.2 415.2 616.8C409.867 614.4 405.2 611.133 401.2 607C397.333 602.733 394.333 597.8 392.2 592.2C390.067 586.467 389 580.4 389 574ZM424.2 572.6C424.2 575.133 424.667 577.533 425.6 579.8C426.533 581.933 427.867 583.867 429.6 585.6C431.333 587.2 433.267 588.467 435.4 589.4C437.667 590.333 440.133 590.8 442.8 590.8C445.333 590.8 447.733 590.333 450 589.4C452.267 588.467 454.2 587.2 455.8 585.6C457.533 584 458.867 582.133 459.8 580C460.733 577.733 461.2 575.333 461.2 572.8C461.2 567.733 459.4 563.467 455.8 560C452.333 556.4 448 554.6 442.8 554.6C440.133 554.6 437.667 555.067 435.4 556C433.267 556.933 431.333 558.2 429.6 559.8C427.867 561.4 426.533 563.333 425.6 565.6C424.667 567.733 424.2 570.067 424.2 572.6ZM612.239 612.8C612.239 620.267 610.839 627.2 608.039 633.6C605.372 640 601.639 645.533 596.839 650.2C592.039 654.733 586.372 658.333 579.839 661C573.306 663.533 566.239 664.8 558.639 664.8C550.906 664.8 543.772 663.533 537.239 661C530.706 658.333 525.039 654.733 520.239 650.2C515.439 645.667 511.706 640.333 509.039 634.2C506.372 627.933 505.039 621.133 505.039 613.8C505.039 607.267 506.172 600.533 508.439 593.6C510.839 586.667 513.972 580.067 517.839 573.8L548.839 524.8H590.639L560.239 568C560.906 567.733 561.839 567.467 563.039 567.2C564.372 566.8 565.906 566.6 567.639 566.6C574.172 566.6 580.172 567.8 585.639 570.2C591.106 572.6 595.772 575.867 599.639 580C603.639 584.133 606.706 589.067 608.839 594.8C611.106 600.4 612.239 606.4 612.239 612.8ZM577.039 614.2C577.039 611.667 576.572 609.333 575.639 607.2C574.706 604.933 573.372 603 571.639 601.4C569.906 599.667 567.906 598.333 565.639 597.4C563.372 596.467 560.972 596 558.439 596C555.906 596 553.506 596.467 551.239 597.4C548.972 598.333 546.972 599.6 545.239 601.2C543.639 602.8 542.372 604.733 541.439 607C540.506 609.133 540.039 611.467 540.039 614C540.039 619.067 541.772 623.4 545.239 627C548.839 630.467 553.239 632.2 558.439 632.2C560.972 632.2 563.372 631.733 565.639 630.8C567.906 629.867 569.906 628.6 571.639 627C573.372 625.4 574.706 623.533 575.639 621.4C576.572 619.133 577.039 616.733 577.039 614.2ZM657.956 517.2C669.156 517.2 677.623 521.133 683.356 529C689.223 536.733 692.156 547.667 692.156 561.8C692.156 575.933 689.423 587 683.956 595C678.49 602.867 669.823 606.8 657.956 606.8C650.623 606.8 644.423 605 639.356 601.4C634.423 597.8 630.69 592.667 628.156 586C625.623 579.2 624.356 571.133 624.356 561.8C624.356 547.667 627.023 536.733 632.356 529C637.69 521.133 646.223 517.2 657.956 517.2ZM658.156 537.6C654.956 537.6 652.623 539.6 651.156 543.6C649.69 547.6 648.956 553.733 648.956 562C648.956 570.133 649.69 576.267 651.156 580.4C652.623 584.533 654.956 586.6 658.156 586.6C661.356 586.6 663.69 584.533 665.156 580.4C666.756 576.267 667.556 570.133 667.556 562C667.556 553.733 666.756 547.6 665.156 543.6C663.69 539.6 661.356 537.6 658.156 537.6ZM759.356 519.2L680.156 662H656.756L735.956 519.2H759.356ZM757.956 574.2C765.423 574.2 771.69 576 776.756 579.6C781.823 583.067 785.623 588.133 788.156 594.8C790.823 601.333 792.156 609.333 792.156 618.8C792.156 632.933 789.423 644 783.956 652C778.49 659.867 769.823 663.8 757.956 663.8C750.623 663.8 744.423 662 739.356 658.4C734.423 654.8 730.69 649.667 728.156 643C725.623 636.2 724.356 628.133 724.356 618.8C724.356 604.667 727.023 593.733 732.356 586C737.69 578.133 746.223 574.2 757.956 574.2ZM758.156 594.6C754.956 594.6 752.623 596.6 751.156 600.6C749.69 604.6 748.956 610.733 748.956 619C748.956 627.133 749.69 633.267 751.156 637.4C752.623 641.533 754.956 643.6 758.156 643.6C761.356 643.6 763.69 641.6 765.156 637.6C766.756 633.467 767.556 627.267 767.556 619C767.556 610.733 766.756 604.6 765.156 600.6C763.69 596.6 761.356 594.6 758.156 594.6Z" fill="white"/>
<path d="M393 553.2L392.084 552.799L392.08 552.807L392.077 552.815L393 553.2ZM404.4 536.8L405.087 537.527L405.092 537.522L405.097 537.517L404.4 536.8ZM421.4 526L421.762 526.932L421.77 526.929L421.778 526.926L421.4 526ZM464 526L463.622 526.926L463.63 526.929L463.638 526.932L464 526ZM481 536.6L480.313 537.327L480.313 537.327L481 536.6ZM492.2 552.8L491.28 553.192L491.283 553.199L492.2 552.8ZM492.6 593.2L491.655 592.873L491.652 592.881L491.65 592.889L492.6 593.2ZM483.4 613L484.247 613.532L484.251 613.525L483.4 613ZM452.6 662V663H453.153L453.447 662.532L452.6 662ZM410.2 662L409.383 661.423L408.271 663H410.2V662ZM440.4 619.2L441.217 619.777L439.921 618.322L440.4 619.2ZM415.2 616.8L414.79 617.712L414.798 617.716L415.2 616.8ZM401.2 607L400.459 607.672L400.47 607.684L400.481 607.695L401.2 607ZM392.2 592.2L391.263 592.549L391.266 592.556L392.2 592.2ZM425.6 579.8L424.675 580.181L424.679 580.191L424.684 580.201L425.6 579.8ZM429.6 585.6L428.893 586.307L428.907 586.321L428.922 586.335L429.6 585.6ZM435.4 589.4L434.999 590.316L435.009 590.321L435.019 590.325L435.4 589.4ZM450 589.4L449.619 588.475L449.619 588.475L450 589.4ZM455.8 585.6L455.122 584.865L455.107 584.879L455.093 584.893L455.8 585.6ZM459.8 580L460.716 580.401L460.721 580.391L460.725 580.381L459.8 580ZM455.8 560L455.08 560.694L455.093 560.707L455.106 560.72L455.8 560ZM435.4 556L435.019 555.075L435.009 555.079L434.999 555.084L435.4 556ZM429.6 559.8L428.922 559.065L428.922 559.065L429.6 559.8ZM425.6 565.6L426.516 566.001L426.521 565.991L426.525 565.981L425.6 565.6ZM390 574C390 566.655 391.311 559.854 393.923 553.585L392.077 552.815C389.356 559.346 388 566.412 388 574H390ZM393.916 553.601C396.666 547.317 400.39 541.963 405.087 537.527L403.713 536.073C398.81 540.704 394.934 546.283 392.084 552.799L393.916 553.601ZM405.097 537.517C409.796 532.948 415.347 529.419 421.762 526.932L421.038 525.068C414.386 527.647 408.604 531.318 403.703 536.083L405.097 537.517ZM421.778 526.926C428.182 524.312 435.12 523 442.6 523V521C434.88 521 427.684 522.355 421.022 525.074L421.778 526.926ZM442.6 523C450.216 523 457.22 524.313 463.622 526.926L464.378 525.074C457.714 522.354 450.45 521 442.6 521V523ZM463.638 526.932C470.059 529.422 475.613 532.888 480.313 537.327L481.687 535.873C476.787 531.245 471.008 527.645 464.362 525.068L463.638 526.932ZM480.313 537.327C485.01 541.763 488.665 547.047 491.28 553.192L493.12 552.408C490.401 546.019 486.59 540.504 481.687 535.873L480.313 537.327ZM491.283 553.199C493.89 559.195 495.2 565.791 495.2 573H497.2C497.2 565.543 495.844 558.672 493.117 552.401L491.283 553.199ZM495.2 573C495.2 579.409 494.023 586.032 491.655 592.873L493.545 593.527C495.977 586.501 497.2 579.657 497.2 573H495.2ZM491.65 592.889C489.408 599.747 486.375 606.275 482.549 612.475L484.251 613.525C488.159 607.192 491.259 600.52 493.551 593.511L491.65 592.889ZM482.553 612.468L451.753 661.468L453.447 662.532L484.247 613.532L482.553 612.468ZM452.6 661H410.2V663H452.6V661ZM411.017 662.577L441.217 619.777L439.583 618.623L409.383 661.423L411.017 662.577ZM439.921 618.322C438.686 618.996 436.501 619.4 433.2 619.4V621.4C436.565 621.4 439.18 621.004 440.879 620.078L439.921 618.322ZM433.2 619.4C426.792 619.4 420.93 618.224 415.602 615.884L414.798 617.716C420.403 620.176 426.541 621.4 433.2 621.4V619.4ZM415.61 615.888C410.391 613.539 405.829 610.345 401.919 606.305L400.481 607.695C404.571 611.921 409.343 615.261 414.79 617.712L415.61 615.888ZM401.941 606.328C398.161 602.158 395.225 597.333 393.134 591.844L391.266 592.556C393.441 598.267 396.505 603.309 400.459 607.672L401.941 606.328ZM393.137 591.851C391.047 586.235 390 580.287 390 574H388C388 580.513 389.086 586.699 391.263 592.549L393.137 591.851ZM423.2 572.6C423.2 575.259 423.691 577.789 424.675 580.181L426.525 579.419C425.643 577.277 425.2 575.007 425.2 572.6H423.2ZM424.684 580.201C425.67 582.454 427.076 584.49 428.893 586.307L430.307 584.893C428.657 583.243 427.397 581.412 426.516 579.399L424.684 580.201ZM428.922 586.335C430.736 588.009 432.763 589.338 434.999 590.316L435.801 588.484C433.771 587.596 431.931 586.391 430.278 584.865L428.922 586.335ZM435.019 590.325C437.417 591.312 440.014 591.8 442.8 591.8V589.8C440.252 589.8 437.916 589.355 435.781 588.475L435.019 590.325ZM442.8 591.8C445.459 591.8 447.989 591.309 450.381 590.325L449.619 588.475C447.477 589.357 445.207 589.8 442.8 589.8V591.8ZM450.381 590.325C452.759 589.345 454.806 588.008 456.507 586.307L455.093 584.893C453.594 586.392 451.774 587.588 449.619 588.475L450.381 590.325ZM456.478 586.335C458.312 584.642 459.727 582.662 460.716 580.401L458.884 579.599C458.007 581.604 456.755 583.358 455.122 584.865L456.478 586.335ZM460.725 580.381C461.709 577.989 462.2 575.459 462.2 572.8H460.2C460.2 575.207 459.757 577.477 458.875 579.619L460.725 580.381ZM462.2 572.8C462.2 567.466 460.292 562.938 456.494 559.28L455.106 560.72C458.508 563.996 460.2 568.001 460.2 572.8H462.2ZM456.52 559.306C452.857 555.502 448.259 553.6 442.8 553.6V555.6C447.741 555.6 451.81 557.298 455.08 560.694L456.52 559.306ZM442.8 553.6C440.014 553.6 437.417 554.088 435.019 555.075L435.781 556.925C437.916 556.045 440.252 555.6 442.8 555.6V553.6ZM434.999 555.084C432.763 556.062 430.736 557.391 428.922 559.065L430.278 560.535C431.931 559.009 433.771 557.804 435.801 556.916L434.999 555.084ZM428.922 559.065C427.077 560.768 425.662 562.823 424.675 565.219L426.525 565.981C427.405 563.843 428.656 562.032 430.278 560.535L428.922 559.065ZM424.684 565.199C423.691 567.47 423.2 569.941 423.2 572.6H425.2C425.2 570.192 425.643 567.997 426.516 566.001L424.684 565.199ZM608.039 633.6L607.123 633.199L607.119 633.207L607.116 633.215L608.039 633.6ZM596.839 650.2L597.526 650.927L597.531 650.922L597.536 650.917L596.839 650.2ZM579.839 661L580.201 661.932L580.209 661.929L580.217 661.926L579.839 661ZM537.239 661L536.861 661.926L536.869 661.929L536.878 661.932L537.239 661ZM520.239 650.2L520.926 649.473L520.926 649.473L520.239 650.2ZM509.039 634.2L508.119 634.592L508.122 634.599L509.039 634.2ZM508.439 593.6L507.494 593.273L507.491 593.281L507.489 593.289L508.439 593.6ZM517.839 573.8L516.994 573.265L516.988 573.275L517.839 573.8ZM548.839 524.8V523.8H548.288L547.994 524.265L548.839 524.8ZM590.639 524.8L591.457 525.375L592.566 523.8H590.639V524.8ZM560.239 568L559.421 567.425L557.482 570.18L560.61 568.928L560.239 568ZM563.039 567.2L563.256 568.176L563.292 568.168L563.326 568.158L563.039 567.2ZM599.639 580L598.909 580.683L598.915 580.689L598.92 580.695L599.639 580ZM608.839 594.8L607.902 595.149L607.907 595.162L607.912 595.175L608.839 594.8ZM575.639 607.2L574.714 607.581L574.719 607.591L574.723 607.601L575.639 607.2ZM571.639 601.4L570.932 602.107L570.946 602.121L570.961 602.135L571.639 601.4ZM565.639 597.4L566.02 596.475L566.02 596.475L565.639 597.4ZM551.239 597.4L550.858 596.475L550.858 596.475L551.239 597.4ZM545.239 601.2L544.561 600.465L544.546 600.479L544.532 600.493L545.239 601.2ZM541.439 607L542.355 607.401L542.36 607.391L542.364 607.381L541.439 607ZM545.239 627L544.519 627.694L544.532 627.707L544.545 627.72L545.239 627ZM565.639 630.8L566.02 631.725L566.02 631.725L565.639 630.8ZM571.639 627L572.317 627.735L572.317 627.735L571.639 627ZM575.639 621.4L576.555 621.801L576.56 621.791L576.564 621.781L575.639 621.4ZM611.239 612.8C611.239 620.138 609.864 626.934 607.123 633.199L608.955 634.001C611.814 627.466 613.239 620.395 613.239 612.8H611.239ZM607.116 633.215C604.499 639.495 600.841 644.914 596.142 649.483L597.536 650.917C602.437 646.153 606.245 640.505 608.962 633.985L607.116 633.215ZM596.152 649.473C591.448 653.916 585.888 657.451 579.461 660.074L580.217 661.926C586.857 659.216 592.63 655.551 597.526 650.927L596.152 649.473ZM579.478 660.068C573.069 662.553 566.126 663.8 558.639 663.8V665.8C566.352 665.8 573.543 664.514 580.201 661.932L579.478 660.068ZM558.639 663.8C551.017 663.8 544.007 662.552 537.601 660.068L536.878 661.932C543.538 664.515 550.795 665.8 558.639 665.8V663.8ZM537.617 660.074C531.19 657.451 525.63 653.916 520.926 649.473L519.552 650.927C524.448 655.551 530.221 659.216 536.861 661.926L537.617 660.074ZM520.926 649.473C516.225 645.034 512.57 639.812 509.956 633.801L508.122 634.599C510.842 640.854 514.653 646.3 519.552 650.927L520.926 649.473ZM509.959 633.808C507.349 627.675 506.039 621.009 506.039 613.8H504.039C504.039 621.257 505.396 628.192 508.119 634.592L509.959 633.808ZM506.039 613.8C506.039 607.384 507.152 600.755 509.39 593.911L507.489 593.289C505.193 600.311 504.039 607.15 504.039 613.8H506.039ZM509.384 593.927C511.76 587.063 514.862 580.53 518.69 574.325L516.988 573.275C513.083 579.604 509.918 586.27 507.494 593.273L509.384 593.927ZM518.684 574.335L549.684 525.335L547.994 524.265L516.994 573.265L518.684 574.335ZM548.839 525.8H590.639V523.8H548.839V525.8ZM589.821 524.224L559.421 567.425L561.057 568.575L591.457 525.375L589.821 524.224ZM560.61 568.928C561.204 568.691 562.077 568.438 563.256 568.176L562.822 566.224C561.601 566.495 560.607 566.776 559.868 567.072L560.61 568.928ZM563.326 568.158C564.547 567.792 565.98 567.6 567.639 567.6V565.6C565.831 565.6 564.198 565.808 562.752 566.242L563.326 568.158ZM567.639 567.6C574.047 567.6 579.909 568.776 585.237 571.116L586.041 569.284C580.436 566.824 574.298 565.6 567.639 565.6V567.6ZM585.237 571.116C590.587 573.464 595.14 576.654 598.909 580.683L600.369 579.317C596.405 575.079 591.625 571.736 586.041 569.284L585.237 571.116ZM598.92 580.695C602.818 584.723 605.814 589.536 607.902 595.149L609.776 594.451C607.598 588.597 604.46 583.543 600.358 579.305L598.92 580.695ZM607.912 595.175C610.128 600.649 611.239 606.521 611.239 612.8H613.239C613.239 606.279 612.084 600.151 609.766 594.425L607.912 595.175ZM578.039 614.2C578.039 611.541 577.549 609.07 576.555 606.799L574.723 607.601C575.596 609.597 576.039 611.792 576.039 614.2H578.039ZM576.564 606.819C575.577 604.423 574.162 602.368 572.317 600.665L570.961 602.135C572.583 603.632 573.834 605.443 574.714 607.581L576.564 606.819ZM572.346 600.693C570.519 598.866 568.409 597.459 566.02 596.475L565.258 598.325C567.403 599.208 569.292 600.467 570.932 602.107L572.346 600.693ZM566.02 596.475C563.628 595.491 561.099 595 558.439 595V597C560.846 597 563.116 597.443 565.258 598.325L566.02 596.475ZM558.439 595C555.78 595 553.25 595.491 550.858 596.475L551.62 598.325C553.762 597.443 556.032 597 558.439 597V595ZM550.858 596.475C548.486 597.452 546.385 598.782 544.561 600.465L545.917 601.935C547.56 600.418 549.458 599.215 551.62 598.325L550.858 596.475ZM544.532 600.493C542.831 602.194 541.494 604.241 540.514 606.619L542.364 607.381C543.251 605.226 544.447 603.406 545.946 601.907L544.532 600.493ZM540.523 606.599C539.53 608.87 539.039 611.341 539.039 614H541.039C541.039 611.592 541.482 609.397 542.355 607.401L540.523 606.599ZM539.039 614C539.039 619.321 540.87 623.904 544.519 627.694L545.959 626.306C542.675 622.896 541.039 618.812 541.039 614H539.039ZM544.545 627.72C548.34 631.374 552.992 633.2 558.439 633.2V631.2C553.486 631.2 549.338 629.559 545.933 626.28L544.545 627.72ZM558.439 633.2C561.099 633.2 563.628 632.709 566.02 631.725L565.258 629.875C563.116 630.757 560.846 631.2 558.439 631.2V633.2ZM566.02 631.725C568.392 630.748 570.493 629.418 572.317 627.735L570.961 626.265C569.318 627.782 567.42 628.985 565.258 629.875L566.02 631.725ZM572.317 627.735C574.151 626.042 575.566 624.062 576.555 621.801L574.723 620.999C573.846 623.004 572.594 624.758 570.961 626.265L572.317 627.735ZM576.564 621.781C577.548 619.389 578.039 616.859 578.039 614.2H576.039C576.039 616.607 575.596 618.877 574.714 621.019L576.564 621.781ZM683.356 529L682.548 529.589L682.554 529.597L682.56 529.604L683.356 529ZM683.956 595L684.777 595.571L684.782 595.564L683.956 595ZM639.356 601.4L638.767 602.208L638.777 602.215L639.356 601.4ZM628.156 586L627.219 586.349L627.221 586.355L628.156 586ZM632.356 529L633.179 529.568L633.184 529.561L632.356 529ZM651.156 543.6L652.095 543.944L652.095 543.944L651.156 543.6ZM651.156 580.4L650.214 580.734L650.214 580.734L651.156 580.4ZM665.156 580.4L664.224 580.039L664.219 580.052L664.214 580.066L665.156 580.4ZM665.156 543.6L664.217 543.944L664.222 543.958L664.228 543.971L665.156 543.6ZM759.356 519.2L760.231 519.685L761.054 518.2H759.356V519.2ZM680.156 662V663H680.745L681.031 662.485L680.156 662ZM656.756 662L655.882 661.515L655.058 663H656.756V662ZM735.956 519.2V518.2H735.367L735.082 518.715L735.956 519.2ZM776.756 579.6L776.177 580.415L776.184 580.42L776.192 580.425L776.756 579.6ZM788.156 594.8L787.221 595.155L787.226 595.167L787.23 595.178L788.156 594.8ZM783.956 652L784.777 652.571L784.782 652.564L783.956 652ZM739.356 658.4L738.767 659.208L738.777 659.215L739.356 658.4ZM728.156 643L727.219 643.349L727.221 643.355L728.156 643ZM732.356 586L733.179 586.568L733.184 586.561L732.356 586ZM751.156 600.6L750.217 600.256L750.217 600.256L751.156 600.6ZM751.156 637.4L750.214 637.734L750.214 637.734L751.156 637.4ZM765.156 637.6L764.224 637.239L764.22 637.247L764.217 637.256L765.156 637.6ZM765.156 600.6L764.217 600.944L764.222 600.958L764.228 600.971L765.156 600.6ZM657.956 518.2C668.892 518.2 677.033 522.022 682.548 529.589L684.164 528.411C678.213 520.245 669.421 516.2 657.956 516.2V518.2ZM682.56 529.604C688.246 537.1 691.156 547.789 691.156 561.8H693.156C693.156 547.544 690.2 536.366 684.153 528.396L682.56 529.604ZM691.156 561.8C691.156 575.82 688.443 586.662 683.131 594.436L684.782 595.564C690.403 587.338 693.156 576.047 693.156 561.8H691.156ZM683.135 594.429C677.901 601.962 669.584 605.8 657.956 605.8V607.8C670.062 607.8 679.079 603.771 684.777 595.571L683.135 594.429ZM657.956 605.8C650.792 605.8 644.804 604.044 639.935 600.585L638.777 602.215C644.042 605.956 650.454 607.8 657.956 607.8V605.8ZM639.946 600.592C635.194 597.125 631.567 592.161 629.091 585.645L627.221 586.355C629.812 593.172 633.652 598.475 638.767 602.208L639.946 600.592ZM629.093 585.651C626.612 578.989 625.356 571.047 625.356 561.8H623.356C623.356 571.22 624.634 579.411 627.219 586.349L629.093 585.651ZM625.356 561.8C625.356 547.773 628.006 537.069 633.179 529.568L631.533 528.432C626.04 536.397 623.356 547.56 623.356 561.8H625.356ZM633.184 529.561C638.287 522.035 646.466 518.2 657.956 518.2V516.2C645.98 516.2 637.093 520.232 631.529 528.439L633.184 529.561ZM658.156 536.6C656.328 536.6 654.711 537.179 653.355 538.341C652.018 539.487 650.988 541.154 650.217 543.256L652.095 543.944C652.791 542.046 653.661 540.713 654.657 539.859C655.634 539.021 656.784 538.6 658.156 538.6V536.6ZM650.217 543.256C648.688 547.427 647.956 553.705 647.956 562H649.956C649.956 553.762 650.691 547.773 652.095 543.944L650.217 543.256ZM647.956 562C647.956 570.167 648.689 576.438 650.214 580.734L652.099 580.066C650.69 576.095 649.956 570.099 649.956 562H647.956ZM650.214 580.734C650.982 582.899 652.009 584.617 653.343 585.799C654.698 586.999 656.319 587.6 658.156 587.6V585.6C656.793 585.6 655.648 585.168 654.669 584.301C653.67 583.417 652.797 582.034 652.099 580.066L650.214 580.734ZM658.156 587.6C659.993 587.6 661.614 586.999 662.969 585.799C664.304 584.617 665.331 582.899 666.099 580.734L664.214 580.066C663.515 582.034 662.642 583.417 661.643 584.301C660.665 585.168 659.519 585.6 658.156 585.6V587.6ZM666.089 580.761C667.756 576.453 668.556 570.171 668.556 562H666.556C666.556 570.095 665.756 576.08 664.224 580.039L666.089 580.761ZM668.556 562C668.556 553.701 667.758 547.411 666.085 543.229L664.228 543.971C665.755 547.789 666.556 553.765 666.556 562H668.556ZM666.095 543.256C665.325 541.154 664.294 539.487 662.957 538.341C661.601 537.179 659.984 536.6 658.156 536.6V538.6C659.528 538.6 660.678 539.021 661.655 539.859C662.652 540.713 663.521 542.046 664.217 543.944L666.095 543.256ZM758.482 518.715L679.282 661.515L681.031 662.485L760.231 519.685L758.482 518.715ZM680.156 661H656.756V663H680.156V661ZM657.631 662.485L736.831 519.685L735.082 518.715L655.882 661.515L657.631 662.485ZM735.956 520.2H759.356V518.2H735.956V520.2ZM757.956 575.2C765.258 575.2 771.311 576.958 776.177 580.415L777.335 578.785C772.068 575.042 765.588 573.2 757.956 573.2V575.2ZM776.192 580.425C781.064 583.759 784.749 588.648 787.221 595.155L789.091 594.445C786.497 587.619 782.582 582.374 777.321 578.775L776.192 580.425ZM787.23 595.178C789.834 601.558 791.156 609.421 791.156 618.8H793.156C793.156 609.245 791.811 601.109 789.082 594.422L787.23 595.178ZM791.156 618.8C791.156 632.82 788.443 643.662 783.131 651.436L784.782 652.564C790.403 644.338 793.156 633.047 793.156 618.8H791.156ZM783.135 651.429C777.901 658.962 769.584 662.8 757.956 662.8V664.8C770.062 664.8 779.079 660.771 784.777 652.571L783.135 651.429ZM757.956 662.8C750.792 662.8 744.804 661.044 739.935 657.585L738.777 659.215C744.042 662.956 750.454 664.8 757.956 664.8V662.8ZM739.946 657.592C735.194 654.125 731.567 649.161 729.091 642.645L727.221 643.355C729.812 650.172 733.652 655.475 738.767 659.208L739.946 657.592ZM729.093 642.651C726.612 635.989 725.356 628.047 725.356 618.8H723.356C723.356 628.22 724.634 636.411 727.219 643.349L729.093 642.651ZM725.356 618.8C725.356 604.773 728.006 594.069 733.179 586.568L731.533 585.432C726.04 593.397 723.356 604.56 723.356 618.8H725.356ZM733.184 586.561C738.287 579.035 746.466 575.2 757.956 575.2V573.2C745.98 573.2 737.093 577.232 731.529 585.439L733.184 586.561ZM758.156 593.6C756.328 593.6 754.711 594.179 753.355 595.341C752.018 596.487 750.988 598.154 750.217 600.256L752.095 600.944C752.791 599.046 753.661 597.713 754.657 596.859C755.634 596.021 756.784 595.6 758.156 595.6V593.6ZM750.217 600.256C748.688 604.427 747.956 610.705 747.956 619H749.956C749.956 610.762 750.691 604.773 752.095 600.944L750.217 600.256ZM747.956 619C747.956 627.167 748.689 633.438 750.214 637.734L752.099 637.066C750.69 633.095 749.956 627.099 749.956 619H747.956ZM750.214 637.734C750.982 639.899 752.009 641.617 753.343 642.799C754.698 643.999 756.319 644.6 758.156 644.6V642.6C756.793 642.6 755.648 642.168 754.669 641.301C753.67 640.417 752.797 639.034 752.099 637.066L750.214 637.734ZM758.156 644.6C759.984 644.6 761.601 644.021 762.957 642.859C764.294 641.713 765.325 640.046 766.095 637.944L764.217 637.256C763.521 639.154 762.652 640.487 761.655 641.341C760.678 642.179 759.528 642.6 758.156 642.6V644.6ZM766.089 637.961C767.757 633.652 768.556 627.302 768.556 619H766.556C766.556 627.231 765.756 633.281 764.224 637.239L766.089 637.961ZM768.556 619C768.556 610.701 767.758 604.411 766.085 600.229L764.228 600.971C765.755 604.789 766.556 610.765 766.556 619H768.556ZM766.095 600.256C765.325 598.154 764.294 596.487 762.957 595.341C761.601 594.179 759.984 593.6 758.156 593.6V595.6C759.528 595.6 760.678 596.021 761.655 596.859C762.652 597.713 763.521 599.046 764.217 600.944L766.095 600.256Z" fill="url(#paint1_linear_208_8)" mask="url(#path-2-outside-2_208_8)"/>
<defs>
<linearGradient id="paint0_linear_208_8" x1="1.38464e-05" y1="890.648" x2="1185" y2="294.352" gradientUnits="userSpaceOnUse">
<stop stop-color="#71C7FC"/>
<stop offset="1" stop-color="#0035A8"/>
</linearGradient>
<linearGradient id="paint1_linear_208_8" x1="383" y1="657.416" x2="699.302" y2="402.754" gradientUnits="userSpaceOnUse">
<stop stop-color="#71C7FC"/>
<stop offset="1" stop-color="#0035A8"/>
</linearGradient>
</defs>
</svg>
