<svg width="1185" height="1185" viewBox="0 0 1185 1185" fill="none" xmlns="http://www.w3.org/2000/svg">
<mask id="path-1-inside-1_208_14" fill="white">
<path d="M1091.22 405.858C1122.25 394.244 1157.15 409.943 1165.57 441.993C1195.91 557.523 1190.73 680.046 1149.94 793.303C1102.33 925.456 1009.32 1036.4 887.507 1106.34C765.691 1176.27 622.989 1200.66 484.861 1175.14C346.733 1149.62 222.164 1075.86 133.376 967.015C44.589 858.17 -2.64045 721.32 0.113921 580.882C2.86829 440.443 55.4273 305.551 148.414 200.27C241.401 94.9899 368.767 26.1694 507.79 6.08685C626.934 -11.1242 747.998 8.42123 855.076 61.3585C884.781 76.0442 893.15 113.381 875.537 141.449L870.483 149.502C852.87 177.571 815.956 185.648 785.846 171.81C705.145 134.719 615.044 121.445 526.305 134.264C417.67 149.957 318.143 203.734 245.481 286.003C172.819 368.272 131.749 473.679 129.596 583.421C127.444 693.163 164.35 800.1 233.73 885.155C303.111 970.209 400.452 1027.85 508.389 1047.79C616.325 1067.73 727.835 1048.67 823.025 994.023C918.215 939.371 990.893 852.679 1028.09 749.412C1058.48 665.059 1063.58 574.128 1043.46 487.62C1035.95 455.344 1051.28 420.805 1082.32 409.191L1091.22 405.858Z"/>
</mask>
<path d="M1091.22 405.858C1122.25 394.244 1157.15 409.943 1165.57 441.993C1195.91 557.523 1190.73 680.046 1149.94 793.303C1102.33 925.456 1009.32 1036.4 887.507 1106.34C765.691 1176.27 622.989 1200.66 484.861 1175.14C346.733 1149.62 222.164 1075.86 133.376 967.015C44.589 858.17 -2.64045 721.32 0.113921 580.882C2.86829 440.443 55.4273 305.551 148.414 200.27C241.401 94.9899 368.767 26.1694 507.79 6.08685C626.934 -11.1242 747.998 8.42123 855.076 61.3585C884.781 76.0442 893.15 113.381 875.537 141.449L870.483 149.502C852.87 177.571 815.956 185.648 785.846 171.81C705.145 134.719 615.044 121.445 526.305 134.264C417.67 149.957 318.143 203.734 245.481 286.003C172.819 368.272 131.749 473.679 129.596 583.421C127.444 693.163 164.35 800.1 233.73 885.155C303.111 970.209 400.452 1027.85 508.389 1047.79C616.325 1067.73 727.835 1048.67 823.025 994.023C918.215 939.371 990.893 852.679 1028.09 749.412C1058.48 665.059 1063.58 574.128 1043.46 487.62C1035.95 455.344 1051.28 420.805 1082.32 409.191L1091.22 405.858Z" stroke="url(#paint0_linear_208_14)" stroke-width="240" mask="url(#path-1-inside-1_208_14)"/>
<mask id="path-2-outside-2_208_14" maskUnits="userSpaceOnUse" x="388" y="516" width="407" height="150" fill="black">
<rect fill="white" x="388" y="516" width="407" height="150"/>
<path d="M442.2 522C448.6 522 454.667 522.933 460.4 524.8C466.133 526.667 471.133 529.4 475.4 533C479.667 536.467 483.067 540.667 485.6 545.6C488.133 550.4 489.4 555.8 489.4 561.8C489.4 567.533 487.933 572.6 485 577C482.2 581.4 478.467 585 473.8 587.8C476.467 589.133 479.067 590.867 481.6 593C484.267 595 486.6 597.4 488.6 600.2C490.6 603 492.2 606.133 493.4 609.6C494.733 612.933 495.4 616.6 495.4 620.6C495.4 627.533 493.933 633.733 491 639.2C488.067 644.667 484.133 649.333 479.2 653.2C474.267 656.933 468.6 659.8 462.2 661.8C455.8 663.8 449.133 664.8 442.2 664.8C435.267 664.8 428.6 663.8 422.2 661.8C415.8 659.8 410.133 656.933 405.2 653.2C400.267 649.333 396.333 644.667 393.4 639.2C390.467 633.733 389 627.533 389 620.6C389 616.6 389.6 612.933 390.8 609.6C392.133 606.133 393.8 603 395.8 600.2C397.8 597.4 400.067 595 402.6 593C405.267 590.867 407.933 589.133 410.6 587.8C405.933 585 402.133 581.4 399.2 577C396.4 572.6 395 567.533 395 561.8C395 555.8 396.267 550.4 398.8 545.6C401.333 540.667 404.733 536.467 409 533C413.267 529.4 418.267 526.667 424 524.8C429.733 522.933 435.8 522 442.2 522ZM459.4 618.6C459.4 614.067 457.8 610.267 454.6 607.2C451.4 604.133 447.267 602.6 442.2 602.6C437.133 602.6 433 604.133 429.8 607.2C426.6 610.267 425 614.067 425 618.6C425 623.267 426.6 627.133 429.8 630.2C433 633.267 437.133 634.8 442.2 634.8C447.267 634.8 451.4 633.267 454.6 630.2C457.8 627.133 459.4 623.267 459.4 618.6ZM442.2 551.2C438.2 551.2 434.8 552.467 432 555C429.333 557.4 428 560.533 428 564.4C428 568.267 429.333 571.467 432 574C434.667 576.4 438.067 577.6 442.2 577.6C446.333 577.6 449.733 576.4 452.4 574C455.067 571.467 456.4 568.267 456.4 564.4C456.4 560.533 455 557.4 452.2 555C449.533 552.467 446.2 551.2 442.2 551.2ZM511.959 599.2L522.159 524.8H604.359V556H549.759L547.159 573.6C553.826 569.333 561.426 567.2 569.959 567.2C576.493 567.2 582.426 568.4 587.759 570.8C593.226 573.2 597.893 576.467 601.759 580.6C605.626 584.733 608.626 589.6 610.759 595.2C612.893 600.667 613.959 606.467 613.959 612.6C613.959 620.067 612.626 627 609.959 633.4C607.293 639.8 603.559 645.333 598.759 650C594.093 654.667 588.559 658.333 582.159 661C575.759 663.533 568.826 664.8 561.359 664.8C553.359 664.8 546.159 663.733 539.759 661.6C533.359 659.333 527.826 656.2 523.159 652.2C518.626 648.2 515.093 643.4 512.559 637.8C510.026 632.067 508.693 625.733 508.559 618.8H543.759C543.893 620.4 544.359 622 545.159 623.6C545.959 625.067 547.026 626.467 548.359 627.8C549.826 629 551.559 630 553.559 630.8C555.693 631.6 558.093 632 560.759 632C565.826 632 570.026 630.333 573.359 627C576.693 623.533 578.359 619.333 578.359 614.4C578.359 609.467 576.693 605.4 573.359 602.2C570.026 599 565.826 597.4 560.759 597.4C557.026 597.4 553.759 598.267 550.959 600C548.159 601.6 546.026 603.6 544.559 606L511.959 599.2ZM659.714 517.2C670.914 517.2 679.381 521.133 685.114 529C690.981 536.733 693.914 547.667 693.914 561.8C693.914 575.933 691.181 587 685.714 595C680.247 602.867 671.581 606.8 659.714 606.8C652.381 606.8 646.181 605 641.114 601.4C636.181 597.8 632.447 592.667 629.914 586C627.381 579.2 626.114 571.133 626.114 561.8C626.114 547.667 628.781 536.733 634.114 529C639.447 521.133 647.981 517.2 659.714 517.2ZM659.914 537.6C656.714 537.6 654.381 539.6 652.914 543.6C651.447 547.6 650.714 553.733 650.714 562C650.714 570.133 651.447 576.267 652.914 580.4C654.381 584.533 656.714 586.6 659.914 586.6C663.114 586.6 665.447 584.533 666.914 580.4C668.514 576.267 669.314 570.133 669.314 562C669.314 553.733 668.514 547.6 666.914 543.6C665.447 539.6 663.114 537.6 659.914 537.6ZM761.114 519.2L681.914 662H658.514L737.714 519.2H761.114ZM759.714 574.2C767.181 574.2 773.447 576 778.514 579.6C783.581 583.067 787.381 588.133 789.914 594.8C792.581 601.333 793.914 609.333 793.914 618.8C793.914 632.933 791.181 644 785.714 652C780.247 659.867 771.581 663.8 759.714 663.8C752.381 663.8 746.181 662 741.114 658.4C736.181 654.8 732.447 649.667 729.914 643C727.381 636.2 726.114 628.133 726.114 618.8C726.114 604.667 728.781 593.733 734.114 586C739.447 578.133 747.981 574.2 759.714 574.2ZM759.914 594.6C756.714 594.6 754.381 596.6 752.914 600.6C751.447 604.6 750.714 610.733 750.714 619C750.714 627.133 751.447 633.267 752.914 637.4C754.381 641.533 756.714 643.6 759.914 643.6C763.114 643.6 765.447 641.6 766.914 637.6C768.514 633.467 769.314 627.267 769.314 619C769.314 610.733 768.514 604.6 766.914 600.6C765.447 596.6 763.114 594.6 759.914 594.6Z"/>
</mask>
<path d="M442.2 522C448.6 522 454.667 522.933 460.4 524.8C466.133 526.667 471.133 529.4 475.4 533C479.667 536.467 483.067 540.667 485.6 545.6C488.133 550.4 489.4 555.8 489.4 561.8C489.4 567.533 487.933 572.6 485 577C482.2 581.4 478.467 585 473.8 587.8C476.467 589.133 479.067 590.867 481.6 593C484.267 595 486.6 597.4 488.6 600.2C490.6 603 492.2 606.133 493.4 609.6C494.733 612.933 495.4 616.6 495.4 620.6C495.4 627.533 493.933 633.733 491 639.2C488.067 644.667 484.133 649.333 479.2 653.2C474.267 656.933 468.6 659.8 462.2 661.8C455.8 663.8 449.133 664.8 442.2 664.8C435.267 664.8 428.6 663.8 422.2 661.8C415.8 659.8 410.133 656.933 405.2 653.2C400.267 649.333 396.333 644.667 393.4 639.2C390.467 633.733 389 627.533 389 620.6C389 616.6 389.6 612.933 390.8 609.6C392.133 606.133 393.8 603 395.8 600.2C397.8 597.4 400.067 595 402.6 593C405.267 590.867 407.933 589.133 410.6 587.8C405.933 585 402.133 581.4 399.2 577C396.4 572.6 395 567.533 395 561.8C395 555.8 396.267 550.4 398.8 545.6C401.333 540.667 404.733 536.467 409 533C413.267 529.4 418.267 526.667 424 524.8C429.733 522.933 435.8 522 442.2 522ZM459.4 618.6C459.4 614.067 457.8 610.267 454.6 607.2C451.4 604.133 447.267 602.6 442.2 602.6C437.133 602.6 433 604.133 429.8 607.2C426.6 610.267 425 614.067 425 618.6C425 623.267 426.6 627.133 429.8 630.2C433 633.267 437.133 634.8 442.2 634.8C447.267 634.8 451.4 633.267 454.6 630.2C457.8 627.133 459.4 623.267 459.4 618.6ZM442.2 551.2C438.2 551.2 434.8 552.467 432 555C429.333 557.4 428 560.533 428 564.4C428 568.267 429.333 571.467 432 574C434.667 576.4 438.067 577.6 442.2 577.6C446.333 577.6 449.733 576.4 452.4 574C455.067 571.467 456.4 568.267 456.4 564.4C456.4 560.533 455 557.4 452.2 555C449.533 552.467 446.2 551.2 442.2 551.2ZM511.959 599.2L522.159 524.8H604.359V556H549.759L547.159 573.6C553.826 569.333 561.426 567.2 569.959 567.2C576.493 567.2 582.426 568.4 587.759 570.8C593.226 573.2 597.893 576.467 601.759 580.6C605.626 584.733 608.626 589.6 610.759 595.2C612.893 600.667 613.959 606.467 613.959 612.6C613.959 620.067 612.626 627 609.959 633.4C607.293 639.8 603.559 645.333 598.759 650C594.093 654.667 588.559 658.333 582.159 661C575.759 663.533 568.826 664.8 561.359 664.8C553.359 664.8 546.159 663.733 539.759 661.6C533.359 659.333 527.826 656.2 523.159 652.2C518.626 648.2 515.093 643.4 512.559 637.8C510.026 632.067 508.693 625.733 508.559 618.8H543.759C543.893 620.4 544.359 622 545.159 623.6C545.959 625.067 547.026 626.467 548.359 627.8C549.826 629 551.559 630 553.559 630.8C555.693 631.6 558.093 632 560.759 632C565.826 632 570.026 630.333 573.359 627C576.693 623.533 578.359 619.333 578.359 614.4C578.359 609.467 576.693 605.4 573.359 602.2C570.026 599 565.826 597.4 560.759 597.4C557.026 597.4 553.759 598.267 550.959 600C548.159 601.6 546.026 603.6 544.559 606L511.959 599.2ZM659.714 517.2C670.914 517.2 679.381 521.133 685.114 529C690.981 536.733 693.914 547.667 693.914 561.8C693.914 575.933 691.181 587 685.714 595C680.247 602.867 671.581 606.8 659.714 606.8C652.381 606.8 646.181 605 641.114 601.4C636.181 597.8 632.447 592.667 629.914 586C627.381 579.2 626.114 571.133 626.114 561.8C626.114 547.667 628.781 536.733 634.114 529C639.447 521.133 647.981 517.2 659.714 517.2ZM659.914 537.6C656.714 537.6 654.381 539.6 652.914 543.6C651.447 547.6 650.714 553.733 650.714 562C650.714 570.133 651.447 576.267 652.914 580.4C654.381 584.533 656.714 586.6 659.914 586.6C663.114 586.6 665.447 584.533 666.914 580.4C668.514 576.267 669.314 570.133 669.314 562C669.314 553.733 668.514 547.6 666.914 543.6C665.447 539.6 663.114 537.6 659.914 537.6ZM761.114 519.2L681.914 662H658.514L737.714 519.2H761.114ZM759.714 574.2C767.181 574.2 773.447 576 778.514 579.6C783.581 583.067 787.381 588.133 789.914 594.8C792.581 601.333 793.914 609.333 793.914 618.8C793.914 632.933 791.181 644 785.714 652C780.247 659.867 771.581 663.8 759.714 663.8C752.381 663.8 746.181 662 741.114 658.4C736.181 654.8 732.447 649.667 729.914 643C727.381 636.2 726.114 628.133 726.114 618.8C726.114 604.667 728.781 593.733 734.114 586C739.447 578.133 747.981 574.2 759.714 574.2ZM759.914 594.6C756.714 594.6 754.381 596.6 752.914 600.6C751.447 604.6 750.714 610.733 750.714 619C750.714 627.133 751.447 633.267 752.914 637.4C754.381 641.533 756.714 643.6 759.914 643.6C763.114 643.6 765.447 641.6 766.914 637.6C768.514 633.467 769.314 627.267 769.314 619C769.314 610.733 768.514 604.6 766.914 600.6C765.447 596.6 763.114 594.6 759.914 594.6Z" fill="white"/>
<path d="M460.4 524.8L460.71 523.849L460.71 523.849L460.4 524.8ZM475.4 533L474.755 533.764L474.762 533.77L474.769 533.776L475.4 533ZM485.6 545.6L484.71 546.057L484.716 546.067L485.6 545.6ZM485 577L484.168 576.445L484.162 576.454L484.156 576.463L485 577ZM473.8 587.8L473.286 586.943L471.723 587.88L473.353 588.694L473.8 587.8ZM481.6 593L480.956 593.765L480.977 593.783L481 593.8L481.6 593ZM488.6 600.2L487.786 600.781L487.786 600.781L488.6 600.2ZM493.4 609.6L492.455 609.927L492.463 609.949L492.472 609.971L493.4 609.6ZM491 639.2L490.119 638.727L490.119 638.727L491 639.2ZM479.2 653.2L479.803 653.997L479.81 653.992L479.817 653.987L479.2 653.2ZM462.2 661.8L462.498 662.754L462.2 661.8ZM422.2 661.8L421.902 662.754L422.2 661.8ZM405.2 653.2L404.583 653.987L404.59 653.992L404.597 653.997L405.2 653.2ZM393.4 639.2L394.281 638.727L394.281 638.727L393.4 639.2ZM390.8 609.6L389.867 609.241L389.863 609.251L389.859 609.261L390.8 609.6ZM395.8 600.2L394.986 599.619L395.8 600.2ZM402.6 593L403.22 593.785L403.225 593.781L402.6 593ZM410.6 587.8L411.047 588.694L412.677 587.88L411.114 586.943L410.6 587.8ZM399.2 577L398.356 577.537L398.362 577.546L398.368 577.555L399.2 577ZM398.8 545.6L399.684 546.067L399.69 546.057L398.8 545.6ZM409 533L409.631 533.776L409.638 533.77L409.645 533.764L409 533ZM424 524.8L424.31 525.751L424.31 525.751L424 524.8ZM454.6 607.2L453.908 607.922L453.908 607.922L454.6 607.2ZM454.6 630.2L453.908 629.478L453.908 629.478L454.6 630.2ZM432 555L432.669 555.743L432.671 555.742L432 555ZM432 574L431.311 574.725L431.321 574.734L431.331 574.743L432 574ZM452.4 574L453.069 574.743L453.079 574.734L453.089 574.725L452.4 574ZM452.2 555L451.511 555.725L451.53 555.743L451.549 555.759L452.2 555ZM442.2 523C448.501 523 454.463 523.919 460.09 525.751L460.71 523.849C454.87 521.948 448.699 521 442.2 521V523ZM460.09 525.751C465.711 527.581 470.595 530.254 474.755 533.764L476.045 532.236C471.672 528.546 466.556 525.753 460.71 523.849L460.09 525.751ZM474.769 533.776C478.928 537.155 482.24 541.246 484.71 546.057L486.49 545.143C483.894 540.088 480.406 535.779 476.031 532.224L474.769 533.776ZM484.716 546.067C487.165 550.708 488.4 555.945 488.4 561.8H490.4C490.4 555.655 489.101 550.092 486.484 545.133L484.716 546.067ZM488.4 561.8C488.4 567.353 486.983 572.223 484.168 576.445L485.832 577.555C488.884 572.977 490.4 567.713 490.4 561.8H488.4ZM484.156 576.463C481.443 580.726 477.825 584.219 473.286 586.943L474.315 588.657C479.108 585.781 482.957 582.074 485.844 577.537L484.156 576.463ZM473.353 588.694C475.942 589.989 478.476 591.677 480.956 593.765L482.244 592.235C479.657 590.056 476.992 588.278 474.247 586.906L473.353 588.694ZM481 593.8C483.582 595.736 485.844 598.062 487.786 600.781L489.414 599.619C487.356 596.738 484.951 594.264 482.2 592.2L481 593.8ZM487.786 600.781C489.727 603.498 491.284 606.545 492.455 609.927L494.345 609.273C493.116 605.722 491.473 602.502 489.414 599.619L487.786 600.781ZM492.472 609.971C493.753 613.174 494.4 616.713 494.4 620.6H496.4C496.4 616.487 495.714 612.693 494.328 609.229L492.472 609.971ZM494.4 620.6C494.4 627.388 492.965 633.422 490.119 638.727L491.881 639.673C494.901 634.044 496.4 627.679 496.4 620.6H494.4ZM490.119 638.727C487.252 644.071 483.409 648.631 478.583 652.413L479.817 653.987C484.858 650.036 488.882 645.263 491.881 639.673L490.119 638.727ZM478.597 652.403C473.763 656.061 468.201 658.877 461.902 660.846L462.498 662.754C468.999 660.723 474.771 657.806 479.803 653.997L478.597 652.403ZM461.902 660.846C455.602 662.814 449.036 663.8 442.2 663.8V665.8C449.231 665.8 455.998 664.786 462.498 662.754L461.902 660.846ZM442.2 663.8C435.364 663.8 428.798 662.814 422.498 660.846L421.902 662.754C428.402 664.786 435.169 665.8 442.2 665.8V663.8ZM422.498 660.846C416.199 658.877 410.637 656.061 405.803 652.403L404.597 653.997C409.629 657.806 415.401 660.723 421.902 662.754L422.498 660.846ZM405.817 652.413C400.991 648.631 397.148 644.071 394.281 638.727L392.519 639.673C395.518 645.263 399.542 650.036 404.583 653.987L405.817 652.413ZM394.281 638.727C391.435 633.422 390 627.388 390 620.6H388C388 627.679 389.499 634.044 392.519 639.673L394.281 638.727ZM390 620.6C390 616.701 390.585 613.15 391.741 609.939L389.859 609.261C388.615 612.716 388 616.499 388 620.6H390ZM391.733 609.959C393.039 606.565 394.667 603.507 396.614 600.781L394.986 599.619C392.933 602.493 391.228 605.702 389.867 609.241L391.733 609.959ZM396.614 600.781C398.563 598.053 400.765 595.723 403.22 593.785L401.98 592.215C399.368 594.277 397.037 596.747 394.986 599.619L396.614 600.781ZM403.225 593.781C405.844 591.685 408.452 589.992 411.047 588.694L410.153 586.906C407.415 588.275 404.689 590.048 401.975 592.219L403.225 593.781ZM411.114 586.943C406.571 584.216 402.881 580.718 400.032 576.445L398.368 577.555C401.386 582.082 405.296 585.784 410.086 588.657L411.114 586.943ZM400.044 576.463C397.356 572.239 396 567.363 396 561.8H394C394 567.704 395.444 572.961 398.356 577.537L400.044 576.463ZM396 561.8C396 555.945 397.235 550.708 399.684 546.067L397.916 545.133C395.299 550.092 394 555.655 394 561.8H396ZM399.69 546.057C402.16 541.246 405.472 537.155 409.631 533.776L408.369 532.224C403.994 535.779 400.506 540.088 397.91 545.143L399.69 546.057ZM409.645 533.764C413.805 530.254 418.689 527.581 424.31 525.751L423.69 523.849C417.844 525.753 412.728 528.546 408.355 532.236L409.645 533.764ZM424.31 525.751C429.937 523.919 435.899 523 442.2 523V521C435.701 521 429.53 521.948 423.69 523.849L424.31 525.751ZM460.4 618.6C460.4 613.801 458.694 609.738 455.292 606.478L453.908 607.922C456.906 610.795 458.4 614.332 458.4 618.6H460.4ZM455.292 606.478C451.879 603.207 447.485 601.6 442.2 601.6V603.6C447.049 603.6 450.921 605.06 453.908 607.922L455.292 606.478ZM442.2 601.6C436.915 601.6 432.521 603.207 429.108 606.478L430.492 607.922C433.479 605.06 437.351 603.6 442.2 603.6V601.6ZM429.108 606.478C425.706 609.738 424 613.801 424 618.6H426C426 614.332 427.494 610.795 430.492 607.922L429.108 606.478ZM424 618.6C424 623.523 425.7 627.656 429.108 630.922L430.492 629.478C427.5 626.611 426 623.01 426 618.6H424ZM429.108 630.922C432.521 634.193 436.915 635.8 442.2 635.8V633.8C437.351 633.8 433.479 632.34 430.492 629.478L429.108 630.922ZM442.2 635.8C447.485 635.8 451.879 634.193 455.292 630.922L453.908 629.478C450.921 632.34 447.049 633.8 442.2 633.8V635.8ZM455.292 630.922C458.7 627.656 460.4 623.523 460.4 618.6H458.4C458.4 623.01 456.9 626.611 453.908 629.478L455.292 630.922ZM442.2 550.2C437.968 550.2 434.325 551.548 431.329 554.258L432.671 555.742C435.275 553.385 438.432 552.2 442.2 552.2V550.2ZM431.331 554.257C428.436 556.862 427 560.275 427 564.4H429C429 560.792 430.231 557.938 432.669 555.743L431.331 554.257ZM427 564.4C427 568.525 428.435 571.992 431.311 574.725L432.689 573.275C430.232 570.941 429 568.008 429 564.4H427ZM431.331 574.743C434.209 577.334 437.86 578.6 442.2 578.6V576.6C438.274 576.6 435.124 575.466 432.669 573.257L431.331 574.743ZM442.2 578.6C446.54 578.6 450.191 577.334 453.069 574.743L451.731 573.257C449.276 575.466 446.126 576.6 442.2 576.6V578.6ZM453.089 574.725C455.965 571.992 457.4 568.525 457.4 564.4H455.4C455.4 568.008 454.168 570.941 451.711 573.275L453.089 574.725ZM457.4 564.4C457.4 560.258 455.884 556.841 452.851 554.241L451.549 555.759C454.116 557.959 455.4 560.809 455.4 564.4H457.4ZM452.889 554.275C450.019 551.549 446.432 550.2 442.2 550.2V552.2C445.968 552.2 449.047 553.384 451.511 555.725L452.889 554.275ZM511.959 599.2L510.969 599.064L510.842 599.988L511.755 600.179L511.959 599.2ZM522.159 524.8V523.8H521.287L521.169 524.664L522.159 524.8ZM604.359 524.8H605.359V523.8H604.359V524.8ZM604.359 556V557H605.359V556H604.359ZM549.759 556V555H548.896L548.77 555.854L549.759 556ZM547.159 573.6L546.17 573.454L545.849 575.626L547.698 574.442L547.159 573.6ZM587.759 570.8L587.349 571.712L587.357 571.716L587.759 570.8ZM601.759 580.6L602.49 579.917L602.49 579.917L601.759 580.6ZM610.759 595.2L609.825 595.556L609.828 595.564L610.759 595.2ZM609.959 633.4L610.882 633.785L610.882 633.785L609.959 633.4ZM598.759 650L598.062 649.283L598.052 649.293L598.759 650ZM582.159 661L582.527 661.93L582.536 661.927L582.544 661.923L582.159 661ZM539.759 661.6L539.426 662.543L539.434 662.546L539.443 662.549L539.759 661.6ZM523.159 652.2L522.498 652.95L522.503 652.955L522.509 652.959L523.159 652.2ZM512.559 637.8L511.645 638.204L511.648 638.212L512.559 637.8ZM508.559 618.8V617.8H507.54L507.56 618.819L508.559 618.8ZM543.759 618.8L544.756 618.717L544.68 617.8H543.759V618.8ZM545.159 623.6L544.265 624.047L544.273 624.063L544.281 624.079L545.159 623.6ZM548.359 627.8L547.652 628.507L547.688 628.542L547.726 628.574L548.359 627.8ZM553.559 630.8L553.188 631.728L553.198 631.733L553.208 631.736L553.559 630.8ZM573.359 627L574.066 627.707L574.073 627.7L574.08 627.693L573.359 627ZM573.359 602.2L574.052 601.479L574.052 601.479L573.359 602.2ZM550.959 600L551.456 600.868L551.471 600.86L551.486 600.85L550.959 600ZM544.559 606L544.355 606.979L545.045 607.123L545.413 606.521L544.559 606ZM512.95 599.336L523.15 524.936L521.169 524.664L510.969 599.064L512.95 599.336ZM522.159 525.8H604.359V523.8H522.159V525.8ZM603.359 524.8V556H605.359V524.8H603.359ZM604.359 555H549.759V557H604.359V555ZM548.77 555.854L546.17 573.454L548.149 573.746L550.749 556.146L548.77 555.854ZM547.698 574.442C554.192 570.287 561.602 568.2 569.959 568.2V566.2C561.251 566.2 553.461 568.38 546.62 572.758L547.698 574.442ZM569.959 568.2C576.368 568.2 582.159 569.376 587.349 571.712L588.17 569.888C582.693 567.424 576.618 566.2 569.959 566.2V568.2ZM587.357 571.716C592.707 574.064 597.26 577.254 601.029 581.283L602.49 579.917C598.525 575.679 593.745 572.336 588.161 569.884L587.357 571.716ZM601.029 581.283C604.802 585.316 607.735 590.07 609.825 595.556L611.694 594.844C609.517 589.13 606.45 584.15 602.49 579.917L601.029 581.283ZM609.828 595.564C611.914 600.909 612.959 606.585 612.959 612.6H614.959C614.959 606.348 613.872 600.424 611.691 594.836L609.828 595.564ZM612.959 612.6C612.959 619.945 611.648 626.746 609.036 633.015L610.882 633.785C613.604 627.254 614.959 620.188 614.959 612.6H612.959ZM609.036 633.015C606.42 639.295 602.762 644.714 598.062 649.283L599.456 650.717C604.357 645.953 608.166 640.305 610.882 633.785L609.036 633.015ZM598.052 649.293C593.483 653.863 588.06 657.458 581.775 660.077L582.544 661.923C589.058 659.209 594.703 655.471 599.466 650.707L598.052 649.293ZM581.791 660.07C575.518 662.553 568.711 663.8 561.359 663.8V665.8C568.941 665.8 576.001 664.513 582.527 661.93L581.791 660.07ZM561.359 663.8C553.447 663.8 546.357 662.745 540.076 660.651L539.443 662.549C545.962 664.722 553.271 665.8 561.359 665.8V663.8ZM540.093 660.657C533.797 658.428 528.374 655.353 523.81 651.441L522.509 652.959C527.278 657.047 532.922 660.239 539.426 662.543L540.093 660.657ZM523.821 651.45C519.396 647.545 515.946 642.861 513.47 637.388L511.648 638.212C514.239 643.939 517.856 648.855 522.498 652.95L523.821 651.45ZM513.474 637.396C511 631.796 509.69 625.596 509.559 618.781L507.56 618.819C507.695 625.871 509.052 632.337 511.645 638.204L513.474 637.396ZM508.559 619.8H543.759V617.8H508.559V619.8ZM542.763 618.883C542.908 620.624 543.415 622.346 544.265 624.047L546.054 623.153C545.304 621.654 544.878 620.176 544.756 618.717L542.763 618.883ZM544.281 624.079C545.133 625.639 546.26 627.115 547.652 628.507L549.066 627.093C547.792 625.819 546.786 624.494 546.037 623.121L544.281 624.079ZM547.726 628.574C549.282 629.847 551.106 630.896 553.188 631.728L553.931 629.872C552.013 629.104 550.37 628.153 548.993 627.026L547.726 628.574ZM553.208 631.736C555.471 632.585 557.993 633 560.759 633V631C558.193 631 555.914 630.615 553.91 629.864L553.208 631.736ZM560.759 633C566.069 633 570.531 631.243 574.066 627.707L572.652 626.293C569.521 629.424 565.583 631 560.759 631V633ZM574.08 627.693C577.598 624.035 579.359 619.584 579.359 614.4H577.359C577.359 619.082 575.788 623.032 572.639 626.307L574.08 627.693ZM579.359 614.4C579.359 609.215 577.596 604.881 574.052 601.479L572.667 602.921C575.789 605.919 577.359 609.718 577.359 614.4H579.359ZM574.052 601.479C570.514 598.082 566.057 596.4 560.759 596.4V598.4C565.595 598.4 569.538 599.918 572.667 602.921L574.052 601.479ZM560.759 596.4C556.866 596.4 553.411 597.306 550.433 599.15L551.486 600.85C554.107 599.227 557.187 598.4 560.759 598.4V596.4ZM550.463 599.132C547.539 600.803 545.273 602.915 543.706 605.479L545.413 606.521C546.779 604.285 548.78 602.397 551.456 600.868L550.463 599.132ZM544.764 605.021L512.164 598.221L511.755 600.179L544.355 606.979L544.764 605.021ZM685.114 529L684.306 529.589L684.312 529.597L684.317 529.604L685.114 529ZM685.714 595L686.535 595.571L686.54 595.564L685.714 595ZM641.114 601.4L640.525 602.208L640.535 602.215L641.114 601.4ZM629.914 586L628.977 586.349L628.979 586.355L629.914 586ZM634.114 529L634.937 529.568L634.942 529.561L634.114 529ZM652.914 543.6L653.853 543.944L653.853 543.944L652.914 543.6ZM652.914 580.4L651.972 580.734L651.972 580.734L652.914 580.4ZM666.914 580.4L665.981 580.039L665.976 580.052L665.972 580.066L666.914 580.4ZM666.914 543.6L665.975 543.944L665.98 543.958L665.986 543.971L666.914 543.6ZM761.114 519.2L761.989 519.685L762.812 518.2H761.114V519.2ZM681.914 662V663H682.503L682.789 662.485L681.914 662ZM658.514 662L657.64 661.515L656.816 663H658.514V662ZM737.714 519.2V518.2H737.125L736.84 518.715L737.714 519.2ZM778.514 579.6L777.935 580.415L777.942 580.42L777.949 580.425L778.514 579.6ZM789.914 594.8L788.979 595.155L788.984 595.167L788.988 595.178L789.914 594.8ZM785.714 652L786.535 652.571L786.54 652.564L785.714 652ZM741.114 658.4L740.525 659.208L740.535 659.215L741.114 658.4ZM729.914 643L728.977 643.349L728.979 643.355L729.914 643ZM734.114 586L734.937 586.568L734.942 586.561L734.114 586ZM752.914 600.6L751.975 600.256L751.975 600.256L752.914 600.6ZM752.914 637.4L751.972 637.734L751.972 637.734L752.914 637.4ZM766.914 637.6L765.981 637.239L765.978 637.247L765.975 637.256L766.914 637.6ZM766.914 600.6L765.975 600.944L765.98 600.958L765.986 600.971L766.914 600.6ZM659.714 518.2C670.65 518.2 678.791 522.022 684.306 529.589L685.922 528.411C679.97 520.245 671.179 516.2 659.714 516.2V518.2ZM684.317 529.604C690.004 537.1 692.914 547.789 692.914 561.8H694.914C694.914 547.544 691.957 536.366 685.911 528.396L684.317 529.604ZM692.914 561.8C692.914 575.82 690.2 586.662 684.888 594.436L686.54 595.564C692.161 587.338 694.914 576.047 694.914 561.8H692.914ZM684.893 594.429C679.658 601.962 671.341 605.8 659.714 605.8V607.8C671.82 607.8 680.836 603.771 686.535 595.571L684.893 594.429ZM659.714 605.8C652.55 605.8 646.562 604.044 641.693 600.585L640.535 602.215C645.8 605.956 652.212 607.8 659.714 607.8V605.8ZM641.704 600.592C636.952 597.125 633.325 592.161 630.849 585.645L628.979 586.355C631.57 593.172 635.41 598.475 640.525 602.208L641.704 600.592ZM630.851 585.651C628.369 578.989 627.114 571.047 627.114 561.8H625.114C625.114 571.22 626.392 579.411 628.977 586.349L630.851 585.651ZM627.114 561.8C627.114 547.773 629.764 537.069 634.937 529.568L633.291 528.432C627.798 536.397 625.114 547.56 625.114 561.8H627.114ZM634.942 529.561C640.044 522.035 648.224 518.2 659.714 518.2V516.2C647.737 516.2 638.85 520.232 633.286 528.439L634.942 529.561ZM659.914 536.6C658.086 536.6 656.469 537.179 655.113 538.341C653.776 539.487 652.746 541.154 651.975 543.256L653.853 543.944C654.549 542.046 655.419 540.713 656.415 539.859C657.392 539.021 658.542 538.6 659.914 538.6V536.6ZM651.975 543.256C650.446 547.427 649.714 553.705 649.714 562H651.714C651.714 553.762 652.449 547.773 653.853 543.944L651.975 543.256ZM649.714 562C649.714 570.167 650.447 576.438 651.972 580.734L653.856 580.066C652.448 576.095 651.714 570.099 651.714 562H649.714ZM651.972 580.734C652.74 582.899 653.767 584.617 655.101 585.799C656.456 586.999 658.077 587.6 659.914 587.6V585.6C658.551 585.6 657.406 585.168 656.427 584.301C655.428 583.417 654.555 582.034 653.856 580.066L651.972 580.734ZM659.914 587.6C661.751 587.6 663.372 586.999 664.727 585.799C666.062 584.617 667.088 582.899 667.856 580.734L665.972 580.066C665.273 582.034 664.4 583.417 663.401 584.301C662.423 585.168 661.277 585.6 659.914 585.6V587.6ZM667.847 580.761C669.514 576.453 670.314 570.171 670.314 562H668.314C668.314 570.095 667.514 576.08 665.981 580.039L667.847 580.761ZM670.314 562C670.314 553.701 669.516 547.411 667.843 543.229L665.986 543.971C667.513 547.789 668.314 553.765 668.314 562H670.314ZM667.853 543.256C667.082 541.154 666.052 539.487 664.715 538.341C663.359 537.179 661.742 536.6 659.914 536.6V538.6C661.286 538.6 662.436 539.021 663.413 539.859C664.409 540.713 665.279 542.046 665.975 543.944L667.853 543.256ZM760.24 518.715L681.04 661.515L682.789 662.485L761.989 519.685L760.24 518.715ZM681.914 661H658.514V663H681.914V661ZM659.389 662.485L738.589 519.685L736.84 518.715L657.64 661.515L659.389 662.485ZM737.714 520.2H761.114V518.2H737.714V520.2ZM759.714 575.2C767.016 575.2 773.069 576.958 777.935 580.415L779.093 578.785C773.826 575.042 767.346 573.2 759.714 573.2V575.2ZM777.949 580.425C782.822 583.759 786.506 588.648 788.979 595.155L790.849 594.445C788.255 587.619 784.34 582.374 779.079 578.775L777.949 580.425ZM788.988 595.178C791.592 601.558 792.914 609.421 792.914 618.8H794.914C794.914 609.245 793.569 601.109 790.84 594.422L788.988 595.178ZM792.914 618.8C792.914 632.82 790.2 643.662 784.888 651.436L786.54 652.564C792.161 644.338 794.914 633.047 794.914 618.8H792.914ZM784.893 651.429C779.658 658.962 771.341 662.8 759.714 662.8V664.8C771.82 664.8 780.836 660.771 786.535 652.571L784.893 651.429ZM759.714 662.8C752.55 662.8 746.562 661.044 741.693 657.585L740.535 659.215C745.8 662.956 752.212 664.8 759.714 664.8V662.8ZM741.704 657.592C736.952 654.125 733.325 649.161 730.849 642.645L728.979 643.355C731.57 650.172 735.41 655.475 740.525 659.208L741.704 657.592ZM730.851 642.651C728.369 635.989 727.114 628.047 727.114 618.8H725.114C725.114 628.22 726.392 636.411 728.977 643.349L730.851 642.651ZM727.114 618.8C727.114 604.773 729.764 594.069 734.937 586.568L733.291 585.432C727.798 593.397 725.114 604.56 725.114 618.8H727.114ZM734.942 586.561C740.044 579.035 748.224 575.2 759.714 575.2V573.2C747.737 573.2 738.85 577.232 733.286 585.439L734.942 586.561ZM759.914 593.6C758.086 593.6 756.469 594.179 755.113 595.341C753.776 596.487 752.746 598.154 751.975 600.256L753.853 600.944C754.549 599.046 755.419 597.713 756.415 596.859C757.392 596.021 758.542 595.6 759.914 595.6V593.6ZM751.975 600.256C750.446 604.427 749.714 610.705 749.714 619H751.714C751.714 610.762 752.449 604.773 753.853 600.944L751.975 600.256ZM749.714 619C749.714 627.167 750.447 633.438 751.972 637.734L753.856 637.066C752.448 633.095 751.714 627.099 751.714 619H749.714ZM751.972 637.734C752.74 639.899 753.767 641.617 755.101 642.799C756.456 643.999 758.077 644.6 759.914 644.6V642.6C758.551 642.6 757.406 642.168 756.427 641.301C755.428 640.417 754.555 639.034 753.856 637.066L751.972 637.734ZM759.914 644.6C761.742 644.6 763.359 644.021 764.715 642.859C766.052 641.713 767.082 640.046 767.853 637.944L765.975 637.256C765.279 639.154 764.409 640.487 763.413 641.341C762.436 642.179 761.286 642.6 759.914 642.6V644.6ZM767.847 637.961C769.515 633.652 770.314 627.302 770.314 619H768.314C768.314 627.231 767.514 633.281 765.981 637.239L767.847 637.961ZM770.314 619C770.314 610.701 769.516 604.411 767.843 600.229L765.986 600.971C767.513 604.789 768.314 610.765 768.314 619H770.314ZM767.853 600.256C767.082 598.154 766.052 596.487 764.715 595.341C763.359 594.179 761.742 593.6 759.914 593.6V595.6C761.286 595.6 762.436 596.021 763.413 596.859C764.409 597.713 765.279 599.046 765.975 600.944L767.853 600.256Z" fill="url(#paint1_linear_208_14)" mask="url(#path-2-outside-2_208_14)"/>
<defs>
<linearGradient id="paint0_linear_208_14" x1="1.38464e-05" y1="890.648" x2="1185" y2="294.352" gradientUnits="userSpaceOnUse">
<stop stop-color="#71C7FC"/>
<stop offset="1" stop-color="#0035A8"/>
</linearGradient>
<linearGradient id="paint1_linear_208_14" x1="383" y1="657.416" x2="699.622" y2="401.27" gradientUnits="userSpaceOnUse">
<stop stop-color="#71C7FC"/>
<stop offset="1" stop-color="#0035A8"/>
</linearGradient>
</defs>
</svg>
