<svg width="1185" height="1185" viewBox="0 0 1185 1185" fill="none" xmlns="http://www.w3.org/2000/svg">
<mask id="path-1-inside-1_208_11" fill="white">
<path d="M1091.22 405.858C1122.25 394.244 1157.15 409.942 1165.57 441.992C1193.98 550.18 1191.29 664.648 1157.15 772.024C1116.92 898.536 1035.38 1007.87 925.594 1082.5C815.806 1157.14 684.137 1192.73 551.7 1183.59C419.263 1174.45 293.733 1121.1 195.241 1032.09C96.7489 943.085 31.001 823.58 8.54132 692.742C-13.9183 561.904 8.21163 427.314 71.3822 310.556C134.553 193.798 235.104 101.636 356.91 48.8515C460.294 4.05029 573.905 -10.1815 684.408 7.171C717.144 12.3116 736.284 45.4428 727.86 77.4914L725.443 86.6862C717.02 118.735 684.205 137.471 651.336 133.26C569.102 122.724 485.147 134.424 408.405 167.681C313.223 208.928 234.65 280.945 185.287 372.182C135.924 463.42 118.631 568.592 136.182 670.832C153.732 773.071 205.109 866.455 282.073 936.008C359.037 1005.56 457.129 1047.25 560.618 1054.39C664.107 1061.54 766.997 1033.72 852.787 975.401C938.577 917.083 1002.3 831.643 1033.73 732.784C1059.07 653.078 1062.24 568.371 1043.46 487.62C1035.95 455.344 1051.28 420.805 1082.32 409.191L1091.22 405.858Z"/>
</mask>
<path d="M1091.22 405.858C1122.25 394.244 1157.15 409.942 1165.57 441.992C1193.98 550.18 1191.29 664.648 1157.15 772.024C1116.92 898.536 1035.38 1007.87 925.594 1082.5C815.806 1157.14 684.137 1192.73 551.7 1183.59C419.263 1174.45 293.733 1121.1 195.241 1032.09C96.7489 943.085 31.001 823.58 8.54132 692.742C-13.9183 561.904 8.21163 427.314 71.3822 310.556C134.553 193.798 235.104 101.636 356.91 48.8515C460.294 4.05029 573.905 -10.1815 684.408 7.171C717.144 12.3116 736.284 45.4428 727.86 77.4914L725.443 86.6862C717.02 118.735 684.205 137.471 651.336 133.26C569.102 122.724 485.147 134.424 408.405 167.681C313.223 208.928 234.65 280.945 185.287 372.182C135.924 463.42 118.631 568.592 136.182 670.832C153.732 773.071 205.109 866.455 282.073 936.008C359.037 1005.56 457.129 1047.25 560.618 1054.39C664.107 1061.54 766.997 1033.72 852.787 975.401C938.577 917.083 1002.3 831.643 1033.73 732.784C1059.07 653.078 1062.24 568.371 1043.46 487.62C1035.95 455.344 1051.28 420.805 1082.32 409.191L1091.22 405.858Z" stroke="url(#paint0_linear_208_11)" stroke-width="240" mask="url(#path-1-inside-1_208_11)"/>
<mask id="path-2-outside-2_208_11" maskUnits="userSpaceOnUse" x="388" y="516" width="425" height="150" fill="black">
<rect fill="white" x="388" y="516" width="425" height="150"/>
<path d="M442.2 522C448.6 522 454.667 522.933 460.4 524.8C466.133 526.667 471.133 529.4 475.4 533C479.667 536.467 483.067 540.667 485.6 545.6C488.133 550.4 489.4 555.8 489.4 561.8C489.4 567.533 487.933 572.6 485 577C482.2 581.4 478.467 585 473.8 587.8C476.467 589.133 479.067 590.867 481.6 593C484.267 595 486.6 597.4 488.6 600.2C490.6 603 492.2 606.133 493.4 609.6C494.733 612.933 495.4 616.6 495.4 620.6C495.4 627.533 493.933 633.733 491 639.2C488.067 644.667 484.133 649.333 479.2 653.2C474.267 656.933 468.6 659.8 462.2 661.8C455.8 663.8 449.133 664.8 442.2 664.8C435.267 664.8 428.6 663.8 422.2 661.8C415.8 659.8 410.133 656.933 405.2 653.2C400.267 649.333 396.333 644.667 393.4 639.2C390.467 633.733 389 627.533 389 620.6C389 616.6 389.6 612.933 390.8 609.6C392.133 606.133 393.8 603 395.8 600.2C397.8 597.4 400.067 595 402.6 593C405.267 590.867 407.933 589.133 410.6 587.8C405.933 585 402.133 581.4 399.2 577C396.4 572.6 395 567.533 395 561.8C395 555.8 396.267 550.4 398.8 545.6C401.333 540.667 404.733 536.467 409 533C413.267 529.4 418.267 526.667 424 524.8C429.733 522.933 435.8 522 442.2 522ZM459.4 618.6C459.4 614.067 457.8 610.267 454.6 607.2C451.4 604.133 447.267 602.6 442.2 602.6C437.133 602.6 433 604.133 429.8 607.2C426.6 610.267 425 614.067 425 618.6C425 623.267 426.6 627.133 429.8 630.2C433 633.267 437.133 634.8 442.2 634.8C447.267 634.8 451.4 633.267 454.6 630.2C457.8 627.133 459.4 623.267 459.4 618.6ZM442.2 551.2C438.2 551.2 434.8 552.467 432 555C429.333 557.4 428 560.533 428 564.4C428 568.267 429.333 571.467 432 574C434.667 576.4 438.067 577.6 442.2 577.6C446.333 577.6 449.733 576.4 452.4 574C455.067 571.467 456.4 568.267 456.4 564.4C456.4 560.533 455 557.4 452.2 555C449.533 552.467 446.2 551.2 442.2 551.2ZM630.359 593.4C630.359 602.867 629.026 611.933 626.359 620.6C623.693 629.133 619.759 636.733 614.559 643.4C609.493 649.933 603.159 655.133 595.559 659C588.093 662.867 579.426 664.8 569.559 664.8C559.693 664.8 550.959 662.867 543.359 659C535.759 655.133 529.359 649.933 524.159 643.4C519.093 636.733 515.226 629.133 512.559 620.6C509.893 611.933 508.559 602.867 508.559 593.4C508.559 583.933 509.893 574.933 512.559 566.4C515.226 557.733 519.093 550.133 524.159 543.6C529.359 536.933 535.759 531.667 543.359 527.8C550.959 523.933 559.693 522 569.559 522C579.426 522 588.093 523.933 595.559 527.8C603.159 531.667 609.493 536.933 614.559 543.6C619.759 550.133 623.693 557.733 626.359 566.4C629.026 574.933 630.359 583.933 630.359 593.4ZM593.159 593.4C593.159 588.733 592.693 584.2 591.759 579.8C590.826 575.4 589.359 571.467 587.359 568C585.493 564.533 583.093 561.8 580.159 559.8C577.226 557.667 573.693 556.6 569.559 556.6C565.426 556.6 561.826 557.667 558.759 559.8C555.826 561.8 553.359 564.533 551.359 568C549.493 571.467 548.093 575.4 547.159 579.8C546.226 584.2 545.759 588.733 545.759 593.4C545.759 598.067 546.226 602.6 547.159 607C548.093 611.4 549.493 615.333 551.359 618.8C553.359 622.267 555.826 625.067 558.759 627.2C561.826 629.2 565.426 630.2 569.559 630.2C573.693 630.2 577.226 629.2 580.159 627.2C583.093 625.067 585.493 622.267 587.359 618.8C589.359 615.333 590.826 611.4 591.759 607C592.693 602.6 593.159 598.067 593.159 593.4ZM677.292 517.2C688.492 517.2 696.959 521.133 702.692 529C708.559 536.733 711.492 547.667 711.492 561.8C711.492 575.933 708.759 587 703.292 595C697.826 602.867 689.159 606.8 677.292 606.8C669.959 606.8 663.759 605 658.692 601.4C653.759 597.8 650.026 592.667 647.492 586C644.959 579.2 643.692 571.133 643.692 561.8C643.692 547.667 646.359 536.733 651.692 529C657.026 521.133 665.559 517.2 677.292 517.2ZM677.492 537.6C674.292 537.6 671.959 539.6 670.492 543.6C669.026 547.6 668.292 553.733 668.292 562C668.292 570.133 669.026 576.267 670.492 580.4C671.959 584.533 674.292 586.6 677.492 586.6C680.692 586.6 683.026 584.533 684.492 580.4C686.092 576.267 686.892 570.133 686.892 562C686.892 553.733 686.092 547.6 684.492 543.6C683.026 539.6 680.692 537.6 677.492 537.6ZM778.692 519.2L699.492 662H676.092L755.292 519.2H778.692ZM777.292 574.2C784.759 574.2 791.026 576 796.092 579.6C801.159 583.067 804.959 588.133 807.492 594.8C810.159 601.333 811.492 609.333 811.492 618.8C811.492 632.933 808.759 644 803.292 652C797.826 659.867 789.159 663.8 777.292 663.8C769.959 663.8 763.759 662 758.692 658.4C753.759 654.8 750.026 649.667 747.492 643C744.959 636.2 743.692 628.133 743.692 618.8C743.692 604.667 746.359 593.733 751.692 586C757.026 578.133 765.559 574.2 777.292 574.2ZM777.492 594.6C774.292 594.6 771.959 596.6 770.492 600.6C769.026 604.6 768.292 610.733 768.292 619C768.292 627.133 769.026 633.267 770.492 637.4C771.959 641.533 774.292 643.6 777.492 643.6C780.692 643.6 783.026 641.6 784.492 637.6C786.092 633.467 786.892 627.267 786.892 619C786.892 610.733 786.092 604.6 784.492 600.6C783.026 596.6 780.692 594.6 777.492 594.6Z"/>
</mask>
<path d="M442.2 522C448.6 522 454.667 522.933 460.4 524.8C466.133 526.667 471.133 529.4 475.4 533C479.667 536.467 483.067 540.667 485.6 545.6C488.133 550.4 489.4 555.8 489.4 561.8C489.4 567.533 487.933 572.6 485 577C482.2 581.4 478.467 585 473.8 587.8C476.467 589.133 479.067 590.867 481.6 593C484.267 595 486.6 597.4 488.6 600.2C490.6 603 492.2 606.133 493.4 609.6C494.733 612.933 495.4 616.6 495.4 620.6C495.4 627.533 493.933 633.733 491 639.2C488.067 644.667 484.133 649.333 479.2 653.2C474.267 656.933 468.6 659.8 462.2 661.8C455.8 663.8 449.133 664.8 442.2 664.8C435.267 664.8 428.6 663.8 422.2 661.8C415.8 659.8 410.133 656.933 405.2 653.2C400.267 649.333 396.333 644.667 393.4 639.2C390.467 633.733 389 627.533 389 620.6C389 616.6 389.6 612.933 390.8 609.6C392.133 606.133 393.8 603 395.8 600.2C397.8 597.4 400.067 595 402.6 593C405.267 590.867 407.933 589.133 410.6 587.8C405.933 585 402.133 581.4 399.2 577C396.4 572.6 395 567.533 395 561.8C395 555.8 396.267 550.4 398.8 545.6C401.333 540.667 404.733 536.467 409 533C413.267 529.4 418.267 526.667 424 524.8C429.733 522.933 435.8 522 442.2 522ZM459.4 618.6C459.4 614.067 457.8 610.267 454.6 607.2C451.4 604.133 447.267 602.6 442.2 602.6C437.133 602.6 433 604.133 429.8 607.2C426.6 610.267 425 614.067 425 618.6C425 623.267 426.6 627.133 429.8 630.2C433 633.267 437.133 634.8 442.2 634.8C447.267 634.8 451.4 633.267 454.6 630.2C457.8 627.133 459.4 623.267 459.4 618.6ZM442.2 551.2C438.2 551.2 434.8 552.467 432 555C429.333 557.4 428 560.533 428 564.4C428 568.267 429.333 571.467 432 574C434.667 576.4 438.067 577.6 442.2 577.6C446.333 577.6 449.733 576.4 452.4 574C455.067 571.467 456.4 568.267 456.4 564.4C456.4 560.533 455 557.4 452.2 555C449.533 552.467 446.2 551.2 442.2 551.2ZM630.359 593.4C630.359 602.867 629.026 611.933 626.359 620.6C623.693 629.133 619.759 636.733 614.559 643.4C609.493 649.933 603.159 655.133 595.559 659C588.093 662.867 579.426 664.8 569.559 664.8C559.693 664.8 550.959 662.867 543.359 659C535.759 655.133 529.359 649.933 524.159 643.4C519.093 636.733 515.226 629.133 512.559 620.6C509.893 611.933 508.559 602.867 508.559 593.4C508.559 583.933 509.893 574.933 512.559 566.4C515.226 557.733 519.093 550.133 524.159 543.6C529.359 536.933 535.759 531.667 543.359 527.8C550.959 523.933 559.693 522 569.559 522C579.426 522 588.093 523.933 595.559 527.8C603.159 531.667 609.493 536.933 614.559 543.6C619.759 550.133 623.693 557.733 626.359 566.4C629.026 574.933 630.359 583.933 630.359 593.4ZM593.159 593.4C593.159 588.733 592.693 584.2 591.759 579.8C590.826 575.4 589.359 571.467 587.359 568C585.493 564.533 583.093 561.8 580.159 559.8C577.226 557.667 573.693 556.6 569.559 556.6C565.426 556.6 561.826 557.667 558.759 559.8C555.826 561.8 553.359 564.533 551.359 568C549.493 571.467 548.093 575.4 547.159 579.8C546.226 584.2 545.759 588.733 545.759 593.4C545.759 598.067 546.226 602.6 547.159 607C548.093 611.4 549.493 615.333 551.359 618.8C553.359 622.267 555.826 625.067 558.759 627.2C561.826 629.2 565.426 630.2 569.559 630.2C573.693 630.2 577.226 629.2 580.159 627.2C583.093 625.067 585.493 622.267 587.359 618.8C589.359 615.333 590.826 611.4 591.759 607C592.693 602.6 593.159 598.067 593.159 593.4ZM677.292 517.2C688.492 517.2 696.959 521.133 702.692 529C708.559 536.733 711.492 547.667 711.492 561.8C711.492 575.933 708.759 587 703.292 595C697.826 602.867 689.159 606.8 677.292 606.8C669.959 606.8 663.759 605 658.692 601.4C653.759 597.8 650.026 592.667 647.492 586C644.959 579.2 643.692 571.133 643.692 561.8C643.692 547.667 646.359 536.733 651.692 529C657.026 521.133 665.559 517.2 677.292 517.2ZM677.492 537.6C674.292 537.6 671.959 539.6 670.492 543.6C669.026 547.6 668.292 553.733 668.292 562C668.292 570.133 669.026 576.267 670.492 580.4C671.959 584.533 674.292 586.6 677.492 586.6C680.692 586.6 683.026 584.533 684.492 580.4C686.092 576.267 686.892 570.133 686.892 562C686.892 553.733 686.092 547.6 684.492 543.6C683.026 539.6 680.692 537.6 677.492 537.6ZM778.692 519.2L699.492 662H676.092L755.292 519.2H778.692ZM777.292 574.2C784.759 574.2 791.026 576 796.092 579.6C801.159 583.067 804.959 588.133 807.492 594.8C810.159 601.333 811.492 609.333 811.492 618.8C811.492 632.933 808.759 644 803.292 652C797.826 659.867 789.159 663.8 777.292 663.8C769.959 663.8 763.759 662 758.692 658.4C753.759 654.8 750.026 649.667 747.492 643C744.959 636.2 743.692 628.133 743.692 618.8C743.692 604.667 746.359 593.733 751.692 586C757.026 578.133 765.559 574.2 777.292 574.2ZM777.492 594.6C774.292 594.6 771.959 596.6 770.492 600.6C769.026 604.6 768.292 610.733 768.292 619C768.292 627.133 769.026 633.267 770.492 637.4C771.959 641.533 774.292 643.6 777.492 643.6C780.692 643.6 783.026 641.6 784.492 637.6C786.092 633.467 786.892 627.267 786.892 619C786.892 610.733 786.092 604.6 784.492 600.6C783.026 596.6 780.692 594.6 777.492 594.6Z" fill="white"/>
<path d="M460.4 524.8L460.71 523.849L460.71 523.849L460.4 524.8ZM475.4 533L474.755 533.764L474.762 533.77L474.769 533.776L475.4 533ZM485.6 545.6L484.71 546.057L484.716 546.067L485.6 545.6ZM485 577L484.168 576.445L484.162 576.454L484.156 576.463L485 577ZM473.8 587.8L473.286 586.943L471.723 587.88L473.353 588.694L473.8 587.8ZM481.6 593L480.956 593.765L480.977 593.783L481 593.8L481.6 593ZM488.6 600.2L487.786 600.781L487.786 600.781L488.6 600.2ZM493.4 609.6L492.455 609.927L492.463 609.949L492.472 609.971L493.4 609.6ZM491 639.2L490.119 638.727L490.119 638.727L491 639.2ZM479.2 653.2L479.803 653.997L479.81 653.992L479.817 653.987L479.2 653.2ZM462.2 661.8L462.498 662.754L462.2 661.8ZM422.2 661.8L421.902 662.754L422.2 661.8ZM405.2 653.2L404.583 653.987L404.59 653.992L404.597 653.997L405.2 653.2ZM393.4 639.2L394.281 638.727L394.281 638.727L393.4 639.2ZM390.8 609.6L389.867 609.241L389.863 609.251L389.859 609.261L390.8 609.6ZM395.8 600.2L394.986 599.619L395.8 600.2ZM402.6 593L403.22 593.785L403.225 593.781L402.6 593ZM410.6 587.8L411.047 588.694L412.677 587.88L411.114 586.943L410.6 587.8ZM399.2 577L398.356 577.537L398.362 577.546L398.368 577.555L399.2 577ZM398.8 545.6L399.684 546.067L399.69 546.057L398.8 545.6ZM409 533L409.631 533.776L409.638 533.77L409.645 533.764L409 533ZM424 524.8L424.31 525.751L424.31 525.751L424 524.8ZM454.6 607.2L453.908 607.922L453.908 607.922L454.6 607.2ZM454.6 630.2L453.908 629.478L453.908 629.478L454.6 630.2ZM432 555L432.669 555.743L432.671 555.742L432 555ZM432 574L431.311 574.725L431.321 574.734L431.331 574.743L432 574ZM452.4 574L453.069 574.743L453.079 574.734L453.089 574.725L452.4 574ZM452.2 555L451.511 555.725L451.53 555.743L451.549 555.759L452.2 555ZM442.2 523C448.501 523 454.463 523.919 460.09 525.751L460.71 523.849C454.87 521.948 448.699 521 442.2 521V523ZM460.09 525.751C465.711 527.581 470.595 530.254 474.755 533.764L476.045 532.236C471.672 528.546 466.556 525.753 460.71 523.849L460.09 525.751ZM474.769 533.776C478.928 537.155 482.24 541.246 484.71 546.057L486.49 545.143C483.894 540.088 480.406 535.779 476.031 532.224L474.769 533.776ZM484.716 546.067C487.165 550.708 488.4 555.945 488.4 561.8H490.4C490.4 555.655 489.101 550.092 486.484 545.133L484.716 546.067ZM488.4 561.8C488.4 567.353 486.983 572.223 484.168 576.445L485.832 577.555C488.884 572.977 490.4 567.713 490.4 561.8H488.4ZM484.156 576.463C481.443 580.726 477.825 584.219 473.286 586.943L474.315 588.657C479.108 585.781 482.957 582.074 485.844 577.537L484.156 576.463ZM473.353 588.694C475.942 589.989 478.476 591.677 480.956 593.765L482.244 592.235C479.657 590.056 476.992 588.278 474.247 586.906L473.353 588.694ZM481 593.8C483.582 595.736 485.844 598.062 487.786 600.781L489.414 599.619C487.356 596.738 484.951 594.264 482.2 592.2L481 593.8ZM487.786 600.781C489.727 603.498 491.284 606.545 492.455 609.927L494.345 609.273C493.116 605.722 491.473 602.502 489.414 599.619L487.786 600.781ZM492.472 609.971C493.753 613.174 494.4 616.713 494.4 620.6H496.4C496.4 616.487 495.714 612.693 494.328 609.229L492.472 609.971ZM494.4 620.6C494.4 627.388 492.965 633.422 490.119 638.727L491.881 639.673C494.901 634.044 496.4 627.679 496.4 620.6H494.4ZM490.119 638.727C487.252 644.071 483.409 648.631 478.583 652.413L479.817 653.987C484.858 650.036 488.882 645.263 491.881 639.673L490.119 638.727ZM478.597 652.403C473.763 656.061 468.201 658.877 461.902 660.846L462.498 662.754C468.999 660.723 474.771 657.806 479.803 653.997L478.597 652.403ZM461.902 660.846C455.602 662.814 449.036 663.8 442.2 663.8V665.8C449.231 665.8 455.998 664.786 462.498 662.754L461.902 660.846ZM442.2 663.8C435.364 663.8 428.798 662.814 422.498 660.846L421.902 662.754C428.402 664.786 435.169 665.8 442.2 665.8V663.8ZM422.498 660.846C416.199 658.877 410.637 656.061 405.803 652.403L404.597 653.997C409.629 657.806 415.401 660.723 421.902 662.754L422.498 660.846ZM405.817 652.413C400.991 648.631 397.148 644.071 394.281 638.727L392.519 639.673C395.518 645.263 399.542 650.036 404.583 653.987L405.817 652.413ZM394.281 638.727C391.435 633.422 390 627.388 390 620.6H388C388 627.679 389.499 634.044 392.519 639.673L394.281 638.727ZM390 620.6C390 616.701 390.585 613.15 391.741 609.939L389.859 609.261C388.615 612.716 388 616.499 388 620.6H390ZM391.733 609.959C393.039 606.565 394.667 603.507 396.614 600.781L394.986 599.619C392.933 602.493 391.228 605.702 389.867 609.241L391.733 609.959ZM396.614 600.781C398.563 598.053 400.765 595.723 403.22 593.785L401.98 592.215C399.368 594.277 397.037 596.747 394.986 599.619L396.614 600.781ZM403.225 593.781C405.844 591.685 408.452 589.992 411.047 588.694L410.153 586.906C407.415 588.275 404.689 590.048 401.975 592.219L403.225 593.781ZM411.114 586.943C406.571 584.216 402.881 580.718 400.032 576.445L398.368 577.555C401.386 582.082 405.296 585.784 410.086 588.657L411.114 586.943ZM400.044 576.463C397.356 572.239 396 567.363 396 561.8H394C394 567.704 395.444 572.961 398.356 577.537L400.044 576.463ZM396 561.8C396 555.945 397.235 550.708 399.684 546.067L397.916 545.133C395.299 550.092 394 555.655 394 561.8H396ZM399.69 546.057C402.16 541.246 405.472 537.155 409.631 533.776L408.369 532.224C403.994 535.779 400.506 540.088 397.91 545.143L399.69 546.057ZM409.645 533.764C413.805 530.254 418.689 527.581 424.31 525.751L423.69 523.849C417.844 525.753 412.728 528.546 408.355 532.236L409.645 533.764ZM424.31 525.751C429.937 523.919 435.899 523 442.2 523V521C435.701 521 429.53 521.948 423.69 523.849L424.31 525.751ZM460.4 618.6C460.4 613.801 458.694 609.738 455.292 606.478L453.908 607.922C456.906 610.795 458.4 614.332 458.4 618.6H460.4ZM455.292 606.478C451.879 603.207 447.485 601.6 442.2 601.6V603.6C447.049 603.6 450.921 605.06 453.908 607.922L455.292 606.478ZM442.2 601.6C436.915 601.6 432.521 603.207 429.108 606.478L430.492 607.922C433.479 605.06 437.351 603.6 442.2 603.6V601.6ZM429.108 606.478C425.706 609.738 424 613.801 424 618.6H426C426 614.332 427.494 610.795 430.492 607.922L429.108 606.478ZM424 618.6C424 623.523 425.7 627.656 429.108 630.922L430.492 629.478C427.5 626.611 426 623.01 426 618.6H424ZM429.108 630.922C432.521 634.193 436.915 635.8 442.2 635.8V633.8C437.351 633.8 433.479 632.34 430.492 629.478L429.108 630.922ZM442.2 635.8C447.485 635.8 451.879 634.193 455.292 630.922L453.908 629.478C450.921 632.34 447.049 633.8 442.2 633.8V635.8ZM455.292 630.922C458.7 627.656 460.4 623.523 460.4 618.6H458.4C458.4 623.01 456.9 626.611 453.908 629.478L455.292 630.922ZM442.2 550.2C437.968 550.2 434.325 551.548 431.329 554.258L432.671 555.742C435.275 553.385 438.432 552.2 442.2 552.2V550.2ZM431.331 554.257C428.436 556.862 427 560.275 427 564.4H429C429 560.792 430.231 557.938 432.669 555.743L431.331 554.257ZM427 564.4C427 568.525 428.435 571.992 431.311 574.725L432.689 573.275C430.232 570.941 429 568.008 429 564.4H427ZM431.331 574.743C434.209 577.334 437.86 578.6 442.2 578.6V576.6C438.274 576.6 435.124 575.466 432.669 573.257L431.331 574.743ZM442.2 578.6C446.54 578.6 450.191 577.334 453.069 574.743L451.731 573.257C449.276 575.466 446.126 576.6 442.2 576.6V578.6ZM453.089 574.725C455.965 571.992 457.4 568.525 457.4 564.4H455.4C455.4 568.008 454.168 570.941 451.711 573.275L453.089 574.725ZM457.4 564.4C457.4 560.258 455.884 556.841 452.851 554.241L451.549 555.759C454.116 557.959 455.4 560.809 455.4 564.4H457.4ZM452.889 554.275C450.019 551.549 446.432 550.2 442.2 550.2V552.2C445.968 552.2 449.047 553.384 451.511 555.725L452.889 554.275ZM626.359 620.6L627.314 620.898L627.315 620.894L626.359 620.6ZM614.559 643.4L613.771 642.785L613.769 642.787L614.559 643.4ZM595.559 659L595.106 658.109L595.1 658.112L595.559 659ZM543.359 659L542.906 659.891L542.906 659.891L543.359 659ZM524.159 643.4L523.363 644.005L523.37 644.014L523.377 644.023L524.159 643.4ZM512.559 620.6L511.604 620.894L511.605 620.898L512.559 620.6ZM512.559 566.4L513.514 566.698L513.515 566.694L512.559 566.4ZM524.159 543.6L523.371 542.985L523.369 542.987L524.159 543.6ZM543.359 527.8L543.813 528.691L543.813 528.691L543.359 527.8ZM595.559 527.8L595.1 528.688L595.106 528.691L595.559 527.8ZM614.559 543.6L613.763 544.205L613.77 544.214L613.777 544.223L614.559 543.6ZM626.359 566.4L625.404 566.694L625.405 566.698L626.359 566.4ZM591.759 579.8L590.781 580.008L590.781 580.008L591.759 579.8ZM587.359 568L586.479 568.474L586.486 568.487L586.493 568.5L587.359 568ZM580.159 559.8L579.571 560.609L579.583 560.618L579.596 560.626L580.159 559.8ZM558.759 559.8L559.323 560.626L559.33 560.621L558.759 559.8ZM551.359 568L550.493 567.5L550.486 567.513L550.479 567.526L551.359 568ZM547.159 579.8L548.138 580.008L548.138 580.008L547.159 579.8ZM547.159 607L546.181 607.208L546.181 607.208L547.159 607ZM551.359 618.8L550.479 619.274L550.486 619.287L550.493 619.3L551.359 618.8ZM558.759 627.2L558.171 628.009L558.192 628.024L558.213 628.038L558.759 627.2ZM580.159 627.2L580.723 628.026L580.735 628.018L580.748 628.009L580.159 627.2ZM587.359 618.8L586.493 618.3L586.486 618.313L586.479 618.326L587.359 618.8ZM591.759 607L592.738 607.208L592.738 607.208L591.759 607ZM629.359 593.4C629.359 602.771 628.04 611.739 625.404 620.306L627.315 620.894C630.012 612.128 631.359 602.962 631.359 593.4H629.359ZM625.405 620.302C622.772 628.727 618.893 636.218 613.771 642.785L615.348 644.015C620.626 637.248 624.613 629.54 627.314 620.898L625.405 620.302ZM613.769 642.787C608.796 649.2 602.579 654.307 595.106 658.109L596.013 659.891C603.74 655.96 610.19 650.666 615.35 644.013L613.769 642.787ZM595.1 658.112C587.798 661.893 579.294 663.8 569.559 663.8V665.8C579.558 665.8 588.388 663.84 596.019 659.888L595.1 658.112ZM569.559 663.8C559.826 663.8 551.252 661.893 543.813 658.109L542.906 659.891C550.667 663.84 559.56 665.8 569.559 665.8V663.8ZM543.813 658.109C536.338 654.306 530.051 649.196 524.942 642.777L523.377 644.023C528.668 650.671 535.181 655.961 542.906 659.891L543.813 658.109ZM524.956 642.795C519.964 636.227 516.148 628.732 513.514 620.302L511.605 620.898C514.304 629.535 518.222 637.24 523.363 644.005L524.956 642.795ZM513.515 620.306C510.879 611.739 509.559 602.771 509.559 593.4H507.559C507.559 602.962 508.906 612.128 511.604 620.894L513.515 620.306ZM509.559 593.4C509.559 584.029 510.879 575.13 513.514 566.698L511.605 566.102C508.906 574.737 507.559 583.838 507.559 593.4H509.559ZM513.515 566.694C516.15 558.132 519.964 550.642 524.95 544.213L523.369 542.987C518.222 549.625 514.302 557.335 511.604 566.106L513.515 566.694ZM524.948 544.215C530.057 537.665 536.342 532.492 543.813 528.691L542.906 526.909C535.177 530.841 528.662 536.202 523.371 542.985L524.948 544.215ZM543.813 528.691C551.252 524.907 559.826 523 569.559 523V521C559.56 521 550.667 522.96 542.906 526.909L543.813 528.691ZM569.559 523C579.294 523 587.798 524.907 595.1 528.688L596.019 526.912C588.388 522.96 579.558 521 569.559 521V523ZM595.106 528.691C602.574 532.491 608.789 537.661 613.763 544.205L615.356 542.995C610.196 536.206 603.745 530.842 596.013 526.909L595.106 528.691ZM613.777 544.223C618.893 550.65 622.771 558.137 625.404 566.694L627.315 566.106C624.615 557.33 620.626 549.616 615.342 542.977L613.777 544.223ZM625.405 566.698C628.04 575.13 629.359 584.029 629.359 593.4H631.359C631.359 583.838 630.012 574.737 627.314 566.102L625.405 566.698ZM594.159 593.4C594.159 588.666 593.686 584.063 592.738 579.592L590.781 580.008C591.699 584.337 592.159 588.8 592.159 593.4H594.159ZM592.738 579.592C591.785 575.102 590.284 571.068 588.226 567.5L586.493 568.5C588.435 571.865 589.867 575.698 590.781 580.008L592.738 579.592ZM588.24 567.526C586.306 563.934 583.802 561.074 580.723 558.974L579.596 560.626C582.383 562.526 584.68 565.133 586.479 568.474L588.24 567.526ZM580.748 558.991C577.62 556.717 573.873 555.6 569.559 555.6V557.6C573.512 557.6 576.832 558.617 579.571 560.609L580.748 558.991ZM569.559 555.6C565.245 555.6 561.44 556.717 558.188 558.979L559.33 560.621C562.212 558.616 565.608 557.6 569.559 557.6V555.6ZM558.196 558.974C555.124 561.069 552.559 563.92 550.493 567.5L552.226 568.5C554.16 565.147 556.529 562.531 559.323 560.626L558.196 558.974ZM550.479 567.526C548.561 571.087 547.131 575.112 546.181 579.592L548.138 580.008C549.054 575.688 550.424 571.846 552.24 568.474L550.479 567.526ZM546.181 579.592C545.233 584.063 544.759 588.666 544.759 593.4H546.759C546.759 588.8 547.219 584.337 548.138 580.008L546.181 579.592ZM544.759 593.4C544.759 598.134 545.233 602.737 546.181 607.208L548.138 606.792C547.219 602.463 546.759 598 546.759 593.4H544.759ZM546.181 607.208C547.131 611.688 548.561 615.713 550.479 619.274L552.24 618.326C550.424 614.954 549.054 611.112 548.138 606.792L546.181 607.208ZM550.493 619.3C552.556 622.875 555.113 625.785 558.171 628.009L559.348 626.391C556.539 624.348 554.163 621.658 552.226 618.3L550.493 619.3ZM558.213 628.038C561.463 630.157 565.258 631.2 569.559 631.2V629.2C565.594 629.2 562.189 628.243 559.306 626.362L558.213 628.038ZM569.559 631.2C573.86 631.2 577.597 630.157 580.723 628.026L579.596 626.374C576.855 628.243 573.526 629.2 569.559 629.2V631.2ZM580.748 628.009C583.812 625.78 586.308 622.861 588.24 619.274L586.479 618.326C584.677 621.672 582.373 624.354 579.571 626.391L580.748 628.009ZM588.226 619.3C590.284 615.732 591.785 611.698 592.738 607.208L590.781 606.792C589.867 611.102 588.435 614.935 586.493 618.3L588.226 619.3ZM592.738 607.208C593.686 602.737 594.159 598.134 594.159 593.4H592.159C592.159 598 591.699 602.463 590.781 606.792L592.738 607.208ZM702.692 529L701.884 529.589L701.89 529.597L701.895 529.604L702.692 529ZM703.292 595L704.113 595.571L704.118 595.564L703.292 595ZM658.692 601.4L658.103 602.208L658.113 602.215L658.692 601.4ZM647.492 586L646.555 586.349L646.557 586.355L647.492 586ZM651.692 529L652.515 529.568L652.52 529.561L651.692 529ZM670.492 543.6L671.431 543.944L671.431 543.944L670.492 543.6ZM670.492 580.4L669.55 580.734L669.55 580.734L670.492 580.4ZM684.492 580.4L683.56 580.039L683.555 580.052L683.55 580.066L684.492 580.4ZM684.492 543.6L683.553 543.944L683.558 543.958L683.564 543.971L684.492 543.6ZM778.692 519.2L779.567 519.685L780.39 518.2H778.692V519.2ZM699.492 662V663H700.081L700.367 662.485L699.492 662ZM676.092 662L675.218 661.515L674.394 663H676.092V662ZM755.292 519.2V518.2H754.703L754.418 518.715L755.292 519.2ZM796.092 579.6L795.513 580.415L795.52 580.42L795.528 580.425L796.092 579.6ZM807.492 594.8L806.557 595.155L806.562 595.167L806.566 595.178L807.492 594.8ZM803.292 652L804.113 652.571L804.118 652.564L803.292 652ZM758.692 658.4L758.103 659.208L758.113 659.215L758.692 658.4ZM747.492 643L746.555 643.349L746.557 643.355L747.492 643ZM751.692 586L752.515 586.568L752.52 586.561L751.692 586ZM770.492 600.6L769.553 600.256L769.553 600.256L770.492 600.6ZM770.492 637.4L769.55 637.734L769.55 637.734L770.492 637.4ZM784.492 637.6L783.56 637.239L783.556 637.247L783.553 637.256L784.492 637.6ZM784.492 600.6L783.553 600.944L783.558 600.958L783.564 600.971L784.492 600.6ZM677.292 518.2C688.228 518.2 696.369 522.022 701.884 529.589L703.5 528.411C697.549 520.245 688.757 516.2 677.292 516.2V518.2ZM701.895 529.604C707.582 537.1 710.492 547.789 710.492 561.8H712.492C712.492 547.544 709.536 536.366 703.489 528.396L701.895 529.604ZM710.492 561.8C710.492 575.82 707.779 586.662 702.467 594.436L704.118 595.564C709.739 587.338 712.492 576.047 712.492 561.8H710.492ZM702.471 594.429C697.236 601.962 688.92 605.8 677.292 605.8V607.8C689.398 607.8 698.415 603.771 704.113 595.571L702.471 594.429ZM677.292 605.8C670.128 605.8 664.14 604.044 659.271 600.585L658.113 602.215C663.378 605.956 669.79 607.8 677.292 607.8V605.8ZM659.282 600.592C654.53 597.125 650.903 592.161 648.427 585.645L646.557 586.355C649.148 593.172 652.988 598.475 658.103 602.208L659.282 600.592ZM648.429 585.651C645.948 578.989 644.692 571.047 644.692 561.8H642.692C642.692 571.22 643.97 579.411 646.555 586.349L648.429 585.651ZM644.692 561.8C644.692 547.773 647.342 537.069 652.515 529.568L650.869 528.432C645.376 536.397 642.692 547.56 642.692 561.8H644.692ZM652.52 529.561C657.623 522.035 665.802 518.2 677.292 518.2V516.2C665.316 516.2 656.428 520.232 650.864 528.439L652.52 529.561ZM677.492 536.6C675.664 536.6 674.047 537.179 672.691 538.341C671.354 539.487 670.324 541.154 669.553 543.256L671.431 543.944C672.127 542.046 672.997 540.713 673.993 539.859C674.97 539.021 676.12 538.6 677.492 538.6V536.6ZM669.553 543.256C668.024 547.427 667.292 553.705 667.292 562H669.292C669.292 553.762 670.027 547.773 671.431 543.944L669.553 543.256ZM667.292 562C667.292 570.167 668.025 576.438 669.55 580.734L671.435 580.066C670.026 576.095 669.292 570.099 669.292 562H667.292ZM669.55 580.734C670.318 582.899 671.345 584.617 672.679 585.799C674.034 586.999 675.655 587.6 677.492 587.6V585.6C676.129 585.6 674.984 585.168 674.005 584.301C673.006 583.417 672.133 582.034 671.435 580.066L669.55 580.734ZM677.492 587.6C679.329 587.6 680.95 586.999 682.305 585.799C683.64 584.617 684.666 582.899 685.435 580.734L683.55 580.066C682.851 582.034 681.978 583.417 680.979 584.301C680.001 585.168 678.855 585.6 677.492 585.6V587.6ZM685.425 580.761C687.092 576.453 687.892 570.171 687.892 562H685.892C685.892 570.095 685.092 576.08 683.56 580.039L685.425 580.761ZM687.892 562C687.892 553.701 687.094 547.411 685.421 543.229L683.564 543.971C685.091 547.789 685.892 553.765 685.892 562H687.892ZM685.431 543.256C684.66 541.154 683.63 539.487 682.293 538.341C680.937 537.179 679.32 536.6 677.492 536.6V538.6C678.864 538.6 680.014 539.021 680.991 539.859C681.987 540.713 682.857 542.046 683.553 543.944L685.431 543.256ZM777.818 518.715L698.618 661.515L700.367 662.485L779.567 519.685L777.818 518.715ZM699.492 661H676.092V663H699.492V661ZM676.967 662.485L756.167 519.685L754.418 518.715L675.218 661.515L676.967 662.485ZM755.292 520.2H778.692V518.2H755.292V520.2ZM777.292 575.2C784.594 575.2 790.647 576.958 795.513 580.415L796.671 578.785C791.404 575.042 784.924 573.2 777.292 573.2V575.2ZM795.528 580.425C800.4 583.759 804.085 588.648 806.557 595.155L808.427 594.445C805.833 587.619 801.918 582.374 796.657 578.775L795.528 580.425ZM806.566 595.178C809.17 601.558 810.492 609.421 810.492 618.8H812.492C812.492 609.245 811.147 601.109 808.418 594.422L806.566 595.178ZM810.492 618.8C810.492 632.82 807.779 643.662 802.467 651.436L804.118 652.564C809.739 644.338 812.492 633.047 812.492 618.8H810.492ZM802.471 651.429C797.236 658.962 788.92 662.8 777.292 662.8V664.8C789.398 664.8 798.415 660.771 804.113 652.571L802.471 651.429ZM777.292 662.8C770.128 662.8 764.14 661.044 759.271 657.585L758.113 659.215C763.378 662.956 769.79 664.8 777.292 664.8V662.8ZM759.282 657.592C754.53 654.125 750.903 649.161 748.427 642.645L746.557 643.355C749.148 650.172 752.988 655.475 758.103 659.208L759.282 657.592ZM748.429 642.651C745.948 635.989 744.692 628.047 744.692 618.8H742.692C742.692 628.22 743.97 636.411 746.555 643.349L748.429 642.651ZM744.692 618.8C744.692 604.773 747.342 594.069 752.515 586.568L750.869 585.432C745.376 593.397 742.692 604.56 742.692 618.8H744.692ZM752.52 586.561C757.623 579.035 765.802 575.2 777.292 575.2V573.2C765.316 573.2 756.428 577.232 750.864 585.439L752.52 586.561ZM777.492 593.6C775.664 593.6 774.047 594.179 772.691 595.341C771.354 596.487 770.324 598.154 769.553 600.256L771.431 600.944C772.127 599.046 772.997 597.713 773.993 596.859C774.97 596.021 776.12 595.6 777.492 595.6V593.6ZM769.553 600.256C768.024 604.427 767.292 610.705 767.292 619H769.292C769.292 610.762 770.027 604.773 771.431 600.944L769.553 600.256ZM767.292 619C767.292 627.167 768.025 633.438 769.55 637.734L771.435 637.066C770.026 633.095 769.292 627.099 769.292 619H767.292ZM769.55 637.734C770.318 639.899 771.345 641.617 772.679 642.799C774.034 643.999 775.655 644.6 777.492 644.6V642.6C776.129 642.6 774.984 642.168 774.005 641.301C773.006 640.417 772.133 639.034 771.435 637.066L769.55 637.734ZM777.492 644.6C779.32 644.6 780.937 644.021 782.293 642.859C783.63 641.713 784.66 640.046 785.431 637.944L783.553 637.256C782.857 639.154 781.987 640.487 780.991 641.341C780.014 642.179 778.864 642.6 777.492 642.6V644.6ZM785.425 637.961C787.093 633.652 787.892 627.302 787.892 619H785.892C785.892 627.231 785.092 633.281 783.56 637.239L785.425 637.961ZM787.892 619C787.892 610.701 787.094 604.411 785.421 600.229L783.564 600.971C785.091 604.789 785.892 610.765 785.892 619H787.892ZM785.431 600.256C784.66 598.154 783.63 596.487 782.293 595.341C780.937 594.179 779.32 593.6 777.492 593.6V595.6C778.864 595.6 780.014 596.021 780.991 596.859C781.987 597.713 782.857 599.046 783.553 600.944L785.431 600.256Z" fill="url(#paint1_linear_208_11)" mask="url(#path-2-outside-2_208_11)"/>
<defs>
<linearGradient id="paint0_linear_208_11" x1="1.38464e-05" y1="890.648" x2="1185" y2="294.352" gradientUnits="userSpaceOnUse">
<stop stop-color="#71C7FC"/>
<stop offset="1" stop-color="#0035A8"/>
</linearGradient>
<linearGradient id="paint1_linear_208_11" x1="383" y1="657.416" x2="702.025" y2="388.83" gradientUnits="userSpaceOnUse">
<stop stop-color="#71C7FC"/>
<stop offset="1" stop-color="#0035A8"/>
</linearGradient>
</defs>
</svg>
