<svg width="1185" height="1185" viewBox="0 0 1185 1185" fill="none" xmlns="http://www.w3.org/2000/svg">
<mask id="path-1-inside-1_208_6" fill="white">
<path d="M1091.22 405.858C1122.25 394.244 1157.15 409.943 1165.57 441.993C1198.02 565.542 1189.79 696.877 1141.17 816.157C1084.96 954.04 978.898 1065.71 844.089 1128.93C709.28 1192.16 555.608 1202.31 413.654 1157.36C271.7 1112.42 151.872 1015.67 78.0186 886.379C4.16469 757.087 -18.3009 604.727 15.0926 459.62C48.4862 314.514 135.29 187.3 258.231 103.296C381.171 19.2921 531.233 -15.3434 678.554 6.28243C805.997 24.9904 923.306 84.6156 1013.24 175.327C1036.57 198.859 1032.37 236.891 1006.6 257.724L999.21 263.701C973.44 284.534 935.902 280.192 911.914 257.331C842.947 191.604 754.966 148.394 659.744 134.416C544.625 117.517 427.363 144.582 331.294 210.225C235.226 275.868 167.395 375.275 141.301 488.665C115.206 602.054 132.762 721.112 190.473 822.144C248.184 923.176 341.819 998.775 452.745 1033.9C563.671 1069.02 683.755 1061.09 789.097 1011.68C894.44 962.274 977.319 875.015 1021.24 767.27C1057.57 678.148 1065.04 580.414 1043.46 487.621C1035.95 455.345 1051.28 420.805 1082.32 409.191L1091.22 405.858Z"/>
</mask>
<path d="M1091.22 405.858C1122.25 394.244 1157.15 409.943 1165.57 441.993C1198.02 565.542 1189.79 696.877 1141.17 816.157C1084.96 954.04 978.898 1065.71 844.089 1128.93C709.28 1192.16 555.608 1202.31 413.654 1157.36C271.7 1112.42 151.872 1015.67 78.0186 886.379C4.16469 757.087 -18.3009 604.727 15.0926 459.62C48.4862 314.514 135.29 187.3 258.231 103.296C381.171 19.2921 531.233 -15.3434 678.554 6.28243C805.997 24.9904 923.306 84.6156 1013.24 175.327C1036.57 198.859 1032.37 236.891 1006.6 257.724L999.21 263.701C973.44 284.534 935.902 280.192 911.914 257.331C842.947 191.604 754.966 148.394 659.744 134.416C544.625 117.517 427.363 144.582 331.294 210.225C235.226 275.868 167.395 375.275 141.301 488.665C115.206 602.054 132.762 721.112 190.473 822.144C248.184 923.176 341.819 998.775 452.745 1033.9C563.671 1069.02 683.755 1061.09 789.097 1011.68C894.44 962.274 977.319 875.015 1021.24 767.27C1057.57 678.148 1065.04 580.414 1043.46 487.621C1035.95 455.345 1051.28 420.805 1082.32 409.191L1091.22 405.858Z" stroke="url(#paint0_linear_208_6)" stroke-width="240" mask="url(#path-1-inside-1_208_6)"/>
<mask id="path-2-outside-2_208_6" maskUnits="userSpaceOnUse" x="388" y="516" width="409" height="150" fill="black">
<rect fill="white" x="388" y="516" width="409" height="150"/>
<path d="M389 574C389 566.533 390.333 559.6 393 553.2C395.8 546.8 399.6 541.333 404.4 536.8C409.2 532.133 414.867 528.533 421.4 526C427.933 523.333 435 522 442.6 522C450.333 522 457.467 523.333 464 526C470.533 528.533 476.2 532.067 481 536.6C485.8 541.133 489.533 546.533 492.2 552.8C494.867 558.933 496.2 565.667 496.2 573C496.2 579.533 495 586.267 492.6 593.2C490.333 600.133 487.267 606.733 483.4 613L452.6 662H410.2L440.4 619.2C438.933 620 436.533 620.4 433.2 620.4C426.667 620.4 420.667 619.2 415.2 616.8C409.867 614.4 405.2 611.133 401.2 607C397.333 602.733 394.333 597.8 392.2 592.2C390.067 586.467 389 580.4 389 574ZM424.2 572.6C424.2 575.133 424.667 577.533 425.6 579.8C426.533 581.933 427.867 583.867 429.6 585.6C431.333 587.2 433.267 588.467 435.4 589.4C437.667 590.333 440.133 590.8 442.8 590.8C445.333 590.8 447.733 590.333 450 589.4C452.267 588.467 454.2 587.2 455.8 585.6C457.533 584 458.867 582.133 459.8 580C460.733 577.733 461.2 575.333 461.2 572.8C461.2 567.733 459.4 563.467 455.8 560C452.333 556.4 448 554.6 442.8 554.6C440.133 554.6 437.667 555.067 435.4 556C433.267 556.933 431.333 558.2 429.6 559.8C427.867 561.4 426.533 563.333 425.6 565.6C424.667 567.733 424.2 570.067 424.2 572.6ZM513.717 599.2L523.917 524.8H606.117V556H551.517L548.917 573.6C555.584 569.333 563.184 567.2 571.717 567.2C578.251 567.2 584.184 568.4 589.517 570.8C594.984 573.2 599.651 576.467 603.517 580.6C607.384 584.733 610.384 589.6 612.517 595.2C614.651 600.667 615.717 606.467 615.717 612.6C615.717 620.067 614.384 627 611.717 633.4C609.051 639.8 605.317 645.333 600.517 650C595.851 654.667 590.317 658.333 583.917 661C577.517 663.533 570.584 664.8 563.117 664.8C555.117 664.8 547.917 663.733 541.517 661.6C535.117 659.333 529.584 656.2 524.917 652.2C520.384 648.2 516.851 643.4 514.317 637.8C511.784 632.067 510.451 625.733 510.317 618.8H545.517C545.651 620.4 546.117 622 546.917 623.6C547.717 625.067 548.784 626.467 550.117 627.8C551.584 629 553.317 630 555.317 630.8C557.451 631.6 559.851 632 562.517 632C567.584 632 571.784 630.333 575.117 627C578.451 623.533 580.117 619.333 580.117 614.4C580.117 609.467 578.451 605.4 575.117 602.2C571.784 599 567.584 597.4 562.517 597.4C558.784 597.4 555.517 598.267 552.717 600C549.917 601.6 547.784 603.6 546.317 606L513.717 599.2ZM661.472 517.2C672.672 517.2 681.139 521.133 686.872 529C692.739 536.733 695.672 547.667 695.672 561.8C695.672 575.933 692.939 587 687.472 595C682.005 602.867 673.339 606.8 661.472 606.8C654.139 606.8 647.939 605 642.872 601.4C637.939 597.8 634.205 592.667 631.672 586C629.139 579.2 627.872 571.133 627.872 561.8C627.872 547.667 630.539 536.733 635.872 529C641.205 521.133 649.739 517.2 661.472 517.2ZM661.672 537.6C658.472 537.6 656.139 539.6 654.672 543.6C653.205 547.6 652.472 553.733 652.472 562C652.472 570.133 653.205 576.267 654.672 580.4C656.139 584.533 658.472 586.6 661.672 586.6C664.872 586.6 667.205 584.533 668.672 580.4C670.272 576.267 671.072 570.133 671.072 562C671.072 553.733 670.272 547.6 668.672 543.6C667.205 539.6 664.872 537.6 661.672 537.6ZM762.872 519.2L683.672 662H660.272L739.472 519.2H762.872ZM761.472 574.2C768.939 574.2 775.205 576 780.272 579.6C785.339 583.067 789.139 588.133 791.672 594.8C794.339 601.333 795.672 609.333 795.672 618.8C795.672 632.933 792.939 644 787.472 652C782.005 659.867 773.339 663.8 761.472 663.8C754.139 663.8 747.939 662 742.872 658.4C737.939 654.8 734.205 649.667 731.672 643C729.139 636.2 727.872 628.133 727.872 618.8C727.872 604.667 730.539 593.733 735.872 586C741.205 578.133 749.739 574.2 761.472 574.2ZM761.672 594.6C758.472 594.6 756.139 596.6 754.672 600.6C753.205 604.6 752.472 610.733 752.472 619C752.472 627.133 753.205 633.267 754.672 637.4C756.139 641.533 758.472 643.6 761.672 643.6C764.872 643.6 767.205 641.6 768.672 637.6C770.272 633.467 771.072 627.267 771.072 619C771.072 610.733 770.272 604.6 768.672 600.6C767.205 596.6 764.872 594.6 761.672 594.6Z"/>
</mask>
<path d="M389 574C389 566.533 390.333 559.6 393 553.2C395.8 546.8 399.6 541.333 404.4 536.8C409.2 532.133 414.867 528.533 421.4 526C427.933 523.333 435 522 442.6 522C450.333 522 457.467 523.333 464 526C470.533 528.533 476.2 532.067 481 536.6C485.8 541.133 489.533 546.533 492.2 552.8C494.867 558.933 496.2 565.667 496.2 573C496.2 579.533 495 586.267 492.6 593.2C490.333 600.133 487.267 606.733 483.4 613L452.6 662H410.2L440.4 619.2C438.933 620 436.533 620.4 433.2 620.4C426.667 620.4 420.667 619.2 415.2 616.8C409.867 614.4 405.2 611.133 401.2 607C397.333 602.733 394.333 597.8 392.2 592.2C390.067 586.467 389 580.4 389 574ZM424.2 572.6C424.2 575.133 424.667 577.533 425.6 579.8C426.533 581.933 427.867 583.867 429.6 585.6C431.333 587.2 433.267 588.467 435.4 589.4C437.667 590.333 440.133 590.8 442.8 590.8C445.333 590.8 447.733 590.333 450 589.4C452.267 588.467 454.2 587.2 455.8 585.6C457.533 584 458.867 582.133 459.8 580C460.733 577.733 461.2 575.333 461.2 572.8C461.2 567.733 459.4 563.467 455.8 560C452.333 556.4 448 554.6 442.8 554.6C440.133 554.6 437.667 555.067 435.4 556C433.267 556.933 431.333 558.2 429.6 559.8C427.867 561.4 426.533 563.333 425.6 565.6C424.667 567.733 424.2 570.067 424.2 572.6ZM513.717 599.2L523.917 524.8H606.117V556H551.517L548.917 573.6C555.584 569.333 563.184 567.2 571.717 567.2C578.251 567.2 584.184 568.4 589.517 570.8C594.984 573.2 599.651 576.467 603.517 580.6C607.384 584.733 610.384 589.6 612.517 595.2C614.651 600.667 615.717 606.467 615.717 612.6C615.717 620.067 614.384 627 611.717 633.4C609.051 639.8 605.317 645.333 600.517 650C595.851 654.667 590.317 658.333 583.917 661C577.517 663.533 570.584 664.8 563.117 664.8C555.117 664.8 547.917 663.733 541.517 661.6C535.117 659.333 529.584 656.2 524.917 652.2C520.384 648.2 516.851 643.4 514.317 637.8C511.784 632.067 510.451 625.733 510.317 618.8H545.517C545.651 620.4 546.117 622 546.917 623.6C547.717 625.067 548.784 626.467 550.117 627.8C551.584 629 553.317 630 555.317 630.8C557.451 631.6 559.851 632 562.517 632C567.584 632 571.784 630.333 575.117 627C578.451 623.533 580.117 619.333 580.117 614.4C580.117 609.467 578.451 605.4 575.117 602.2C571.784 599 567.584 597.4 562.517 597.4C558.784 597.4 555.517 598.267 552.717 600C549.917 601.6 547.784 603.6 546.317 606L513.717 599.2ZM661.472 517.2C672.672 517.2 681.139 521.133 686.872 529C692.739 536.733 695.672 547.667 695.672 561.8C695.672 575.933 692.939 587 687.472 595C682.005 602.867 673.339 606.8 661.472 606.8C654.139 606.8 647.939 605 642.872 601.4C637.939 597.8 634.205 592.667 631.672 586C629.139 579.2 627.872 571.133 627.872 561.8C627.872 547.667 630.539 536.733 635.872 529C641.205 521.133 649.739 517.2 661.472 517.2ZM661.672 537.6C658.472 537.6 656.139 539.6 654.672 543.6C653.205 547.6 652.472 553.733 652.472 562C652.472 570.133 653.205 576.267 654.672 580.4C656.139 584.533 658.472 586.6 661.672 586.6C664.872 586.6 667.205 584.533 668.672 580.4C670.272 576.267 671.072 570.133 671.072 562C671.072 553.733 670.272 547.6 668.672 543.6C667.205 539.6 664.872 537.6 661.672 537.6ZM762.872 519.2L683.672 662H660.272L739.472 519.2H762.872ZM761.472 574.2C768.939 574.2 775.205 576 780.272 579.6C785.339 583.067 789.139 588.133 791.672 594.8C794.339 601.333 795.672 609.333 795.672 618.8C795.672 632.933 792.939 644 787.472 652C782.005 659.867 773.339 663.8 761.472 663.8C754.139 663.8 747.939 662 742.872 658.4C737.939 654.8 734.205 649.667 731.672 643C729.139 636.2 727.872 628.133 727.872 618.8C727.872 604.667 730.539 593.733 735.872 586C741.205 578.133 749.739 574.2 761.472 574.2ZM761.672 594.6C758.472 594.6 756.139 596.6 754.672 600.6C753.205 604.6 752.472 610.733 752.472 619C752.472 627.133 753.205 633.267 754.672 637.4C756.139 641.533 758.472 643.6 761.672 643.6C764.872 643.6 767.205 641.6 768.672 637.6C770.272 633.467 771.072 627.267 771.072 619C771.072 610.733 770.272 604.6 768.672 600.6C767.205 596.6 764.872 594.6 761.672 594.6Z" fill="white"/>
<path d="M393 553.2L392.084 552.799L392.08 552.807L392.077 552.815L393 553.2ZM404.4 536.8L405.087 537.527L405.092 537.522L405.097 537.517L404.4 536.8ZM421.4 526L421.762 526.932L421.77 526.929L421.778 526.926L421.4 526ZM464 526L463.622 526.926L463.63 526.929L463.638 526.932L464 526ZM481 536.6L480.313 537.327L480.313 537.327L481 536.6ZM492.2 552.8L491.28 553.192L491.283 553.199L492.2 552.8ZM492.6 593.2L491.655 592.873L491.652 592.881L491.65 592.889L492.6 593.2ZM483.4 613L484.247 613.532L484.251 613.525L483.4 613ZM452.6 662V663H453.153L453.447 662.532L452.6 662ZM410.2 662L409.383 661.423L408.271 663H410.2V662ZM440.4 619.2L441.217 619.777L439.921 618.322L440.4 619.2ZM415.2 616.8L414.79 617.712L414.798 617.716L415.2 616.8ZM401.2 607L400.459 607.672L400.47 607.684L400.481 607.695L401.2 607ZM392.2 592.2L391.263 592.549L391.266 592.556L392.2 592.2ZM425.6 579.8L424.675 580.181L424.679 580.191L424.684 580.201L425.6 579.8ZM429.6 585.6L428.893 586.307L428.907 586.321L428.922 586.335L429.6 585.6ZM435.4 589.4L434.999 590.316L435.009 590.321L435.019 590.325L435.4 589.4ZM450 589.4L449.619 588.475L449.619 588.475L450 589.4ZM455.8 585.6L455.122 584.865L455.107 584.879L455.093 584.893L455.8 585.6ZM459.8 580L460.716 580.401L460.721 580.391L460.725 580.381L459.8 580ZM455.8 560L455.08 560.694L455.093 560.707L455.106 560.72L455.8 560ZM435.4 556L435.019 555.075L435.009 555.079L434.999 555.084L435.4 556ZM429.6 559.8L428.922 559.065L428.922 559.065L429.6 559.8ZM425.6 565.6L426.516 566.001L426.521 565.991L426.525 565.981L425.6 565.6ZM390 574C390 566.655 391.311 559.854 393.923 553.585L392.077 552.815C389.356 559.346 388 566.412 388 574H390ZM393.916 553.601C396.666 547.317 400.39 541.963 405.087 537.527L403.713 536.073C398.81 540.704 394.934 546.283 392.084 552.799L393.916 553.601ZM405.097 537.517C409.796 532.948 415.347 529.419 421.762 526.932L421.038 525.068C414.386 527.647 408.604 531.318 403.703 536.083L405.097 537.517ZM421.778 526.926C428.182 524.312 435.12 523 442.6 523V521C434.88 521 427.684 522.355 421.022 525.074L421.778 526.926ZM442.6 523C450.216 523 457.22 524.313 463.622 526.926L464.378 525.074C457.714 522.354 450.45 521 442.6 521V523ZM463.638 526.932C470.059 529.422 475.613 532.888 480.313 537.327L481.687 535.873C476.787 531.245 471.008 527.645 464.362 525.068L463.638 526.932ZM480.313 537.327C485.01 541.763 488.665 547.047 491.28 553.192L493.12 552.408C490.401 546.019 486.59 540.504 481.687 535.873L480.313 537.327ZM491.283 553.199C493.89 559.195 495.2 565.791 495.2 573H497.2C497.2 565.543 495.844 558.672 493.117 552.401L491.283 553.199ZM495.2 573C495.2 579.409 494.023 586.032 491.655 592.873L493.545 593.527C495.977 586.501 497.2 579.657 497.2 573H495.2ZM491.65 592.889C489.408 599.747 486.375 606.275 482.549 612.475L484.251 613.525C488.159 607.192 491.259 600.52 493.551 593.511L491.65 592.889ZM482.553 612.468L451.753 661.468L453.447 662.532L484.247 613.532L482.553 612.468ZM452.6 661H410.2V663H452.6V661ZM411.017 662.577L441.217 619.777L439.583 618.623L409.383 661.423L411.017 662.577ZM439.921 618.322C438.686 618.996 436.501 619.4 433.2 619.4V621.4C436.565 621.4 439.18 621.004 440.879 620.078L439.921 618.322ZM433.2 619.4C426.792 619.4 420.93 618.224 415.602 615.884L414.798 617.716C420.403 620.176 426.541 621.4 433.2 621.4V619.4ZM415.61 615.888C410.391 613.539 405.829 610.345 401.919 606.305L400.481 607.695C404.571 611.921 409.343 615.261 414.79 617.712L415.61 615.888ZM401.941 606.328C398.161 602.158 395.225 597.333 393.134 591.844L391.266 592.556C393.441 598.267 396.505 603.309 400.459 607.672L401.941 606.328ZM393.137 591.851C391.047 586.235 390 580.287 390 574H388C388 580.513 389.086 586.699 391.263 592.549L393.137 591.851ZM423.2 572.6C423.2 575.259 423.691 577.789 424.675 580.181L426.525 579.419C425.643 577.277 425.2 575.007 425.2 572.6H423.2ZM424.684 580.201C425.67 582.454 427.076 584.49 428.893 586.307L430.307 584.893C428.657 583.243 427.397 581.412 426.516 579.399L424.684 580.201ZM428.922 586.335C430.736 588.009 432.763 589.338 434.999 590.316L435.801 588.484C433.771 587.596 431.931 586.391 430.278 584.865L428.922 586.335ZM435.019 590.325C437.417 591.312 440.014 591.8 442.8 591.8V589.8C440.252 589.8 437.916 589.355 435.781 588.475L435.019 590.325ZM442.8 591.8C445.459 591.8 447.989 591.309 450.381 590.325L449.619 588.475C447.477 589.357 445.207 589.8 442.8 589.8V591.8ZM450.381 590.325C452.759 589.345 454.806 588.008 456.507 586.307L455.093 584.893C453.594 586.392 451.774 587.588 449.619 588.475L450.381 590.325ZM456.478 586.335C458.312 584.642 459.727 582.662 460.716 580.401L458.884 579.599C458.007 581.604 456.755 583.358 455.122 584.865L456.478 586.335ZM460.725 580.381C461.709 577.989 462.2 575.459 462.2 572.8H460.2C460.2 575.207 459.757 577.477 458.875 579.619L460.725 580.381ZM462.2 572.8C462.2 567.466 460.292 562.938 456.494 559.28L455.106 560.72C458.508 563.996 460.2 568.001 460.2 572.8H462.2ZM456.52 559.306C452.857 555.502 448.259 553.6 442.8 553.6V555.6C447.741 555.6 451.81 557.298 455.08 560.694L456.52 559.306ZM442.8 553.6C440.014 553.6 437.417 554.088 435.019 555.075L435.781 556.925C437.916 556.045 440.252 555.6 442.8 555.6V553.6ZM434.999 555.084C432.763 556.062 430.736 557.391 428.922 559.065L430.278 560.535C431.931 559.009 433.771 557.804 435.801 556.916L434.999 555.084ZM428.922 559.065C427.077 560.768 425.662 562.823 424.675 565.219L426.525 565.981C427.405 563.843 428.656 562.032 430.278 560.535L428.922 559.065ZM424.684 565.199C423.691 567.47 423.2 569.941 423.2 572.6H425.2C425.2 570.192 425.643 567.997 426.516 566.001L424.684 565.199ZM513.717 599.2L512.726 599.064L512.6 599.988L513.513 600.179L513.717 599.2ZM523.917 524.8V523.8H523.045L522.926 524.664L523.917 524.8ZM606.117 524.8H607.117V523.8H606.117V524.8ZM606.117 556V557H607.117V556H606.117ZM551.517 556V555H550.654L550.528 555.854L551.517 556ZM548.917 573.6L547.928 573.454L547.607 575.626L549.456 574.442L548.917 573.6ZM589.517 570.8L589.107 571.712L589.115 571.716L589.517 570.8ZM603.517 580.6L604.247 579.917L604.247 579.917L603.517 580.6ZM612.517 595.2L611.583 595.556L611.586 595.564L612.517 595.2ZM611.717 633.4L612.64 633.785L612.64 633.785L611.717 633.4ZM600.517 650L599.82 649.283L599.81 649.293L600.517 650ZM583.917 661L584.285 661.93L584.294 661.927L584.302 661.923L583.917 661ZM541.517 661.6L541.183 662.543L541.192 662.546L541.201 662.549L541.517 661.6ZM524.917 652.2L524.256 652.95L524.261 652.955L524.266 652.959L524.917 652.2ZM514.317 637.8L513.402 638.204L513.406 638.212L514.317 637.8ZM510.317 618.8V617.8H509.298L509.317 618.819L510.317 618.8ZM545.517 618.8L546.514 618.717L546.437 617.8H545.517V618.8ZM546.917 623.6L546.023 624.047L546.031 624.063L546.039 624.079L546.917 623.6ZM550.117 627.8L549.41 628.507L549.445 628.542L549.484 628.574L550.117 627.8ZM555.317 630.8L554.946 631.728L554.956 631.733L554.966 631.736L555.317 630.8ZM575.117 627L575.824 627.707L575.831 627.7L575.838 627.693L575.117 627ZM575.117 602.2L575.81 601.479L575.81 601.479L575.117 602.2ZM552.717 600L553.213 600.868L553.229 600.86L553.244 600.85L552.717 600ZM546.317 606L546.113 606.979L546.803 607.123L547.17 606.521L546.317 606ZM514.708 599.336L524.908 524.936L522.926 524.664L512.726 599.064L514.708 599.336ZM523.917 525.8H606.117V523.8H523.917V525.8ZM605.117 524.8V556H607.117V524.8H605.117ZM606.117 555H551.517V557H606.117V555ZM550.528 555.854L547.928 573.454L549.906 573.746L552.506 556.146L550.528 555.854ZM549.456 574.442C555.949 570.287 563.359 568.2 571.717 568.2V566.2C563.008 566.2 555.218 568.38 548.378 572.758L549.456 574.442ZM571.717 568.2C578.126 568.2 583.917 569.376 589.107 571.712L589.928 569.888C584.451 567.424 578.375 566.2 571.717 566.2V568.2ZM589.115 571.716C594.465 574.064 599.018 577.254 602.787 581.283L604.247 579.917C600.283 575.679 595.503 572.336 589.919 569.884L589.115 571.716ZM602.787 581.283C606.56 585.316 609.493 590.07 611.583 595.556L613.452 594.844C611.275 589.13 608.208 584.15 604.247 579.917L602.787 581.283ZM611.586 595.564C613.672 600.909 614.717 606.585 614.717 612.6H616.717C616.717 606.348 615.629 600.424 613.449 594.836L611.586 595.564ZM614.717 612.6C614.717 619.945 613.406 626.746 610.794 633.015L612.64 633.785C615.362 627.254 616.717 620.188 616.717 612.6H614.717ZM610.794 633.015C608.178 639.295 604.52 644.714 599.82 649.283L601.214 650.717C606.115 645.953 609.923 640.305 612.64 633.785L610.794 633.015ZM599.81 649.293C595.24 653.863 589.818 657.458 583.533 660.077L584.302 661.923C590.816 659.209 596.461 655.471 601.224 650.707L599.81 649.293ZM583.549 660.07C577.276 662.553 570.469 663.8 563.117 663.8V665.8C570.699 665.8 577.758 664.513 584.285 661.93L583.549 660.07ZM563.117 663.8C555.205 663.8 548.115 662.745 541.833 660.651L541.201 662.549C547.72 664.722 555.029 665.8 563.117 665.8V663.8ZM541.851 660.657C535.555 658.428 530.132 655.353 525.568 651.441L524.266 652.959C529.036 657.047 534.679 660.239 541.183 662.543L541.851 660.657ZM525.579 651.45C521.153 647.545 517.704 642.861 515.228 637.388L513.406 638.212C515.997 643.939 519.614 648.855 524.256 652.95L525.579 651.45ZM515.232 637.396C512.758 631.796 511.448 625.596 511.317 618.781L509.317 618.819C509.453 625.871 510.81 632.337 513.403 638.204L515.232 637.396ZM510.317 619.8H545.517V617.8H510.317V619.8ZM544.521 618.883C544.666 620.624 545.172 622.346 546.023 624.047L547.812 623.153C547.062 621.654 546.635 620.176 546.514 618.717L544.521 618.883ZM546.039 624.079C546.89 625.639 548.018 627.115 549.41 628.507L550.824 627.093C549.55 625.819 548.544 624.494 547.795 623.121L546.039 624.079ZM549.484 628.574C551.039 629.847 552.864 630.896 554.946 631.728L555.689 629.872C553.771 629.104 552.128 628.153 550.75 627.026L549.484 628.574ZM554.966 631.736C557.229 632.585 559.751 633 562.517 633V631C559.95 631 557.672 630.615 555.668 629.864L554.966 631.736ZM562.517 633C567.827 633 572.288 631.243 575.824 627.707L574.41 626.293C571.279 629.424 567.341 631 562.517 631V633ZM575.838 627.693C579.356 624.035 581.117 619.584 581.117 614.4H579.117C579.117 619.082 577.545 623.032 574.396 626.307L575.838 627.693ZM581.117 614.4C581.117 609.215 579.354 604.881 575.81 601.479L574.425 602.921C577.547 605.919 579.117 609.718 579.117 614.4H581.117ZM575.81 601.479C572.271 598.082 567.815 596.4 562.517 596.4V598.4C567.353 598.4 571.296 599.918 574.425 602.921L575.81 601.479ZM562.517 596.4C558.623 596.4 555.169 597.306 552.191 599.15L553.244 600.85C555.865 599.227 558.944 598.4 562.517 598.4V596.4ZM552.221 599.132C549.296 600.803 547.031 602.915 545.464 605.479L547.17 606.521C548.537 604.285 550.538 602.397 553.213 600.868L552.221 599.132ZM546.521 605.021L513.921 598.221L513.513 600.179L546.113 606.979L546.521 605.021ZM686.872 529L686.064 529.589L686.069 529.597L686.075 529.604L686.872 529ZM687.472 595L688.293 595.571L688.298 595.564L687.472 595ZM642.872 601.4L642.282 602.208L642.293 602.215L642.872 601.4ZM631.672 586L630.735 586.349L630.737 586.355L631.672 586ZM635.872 529L636.695 529.568L636.7 529.561L635.872 529ZM654.672 543.6L655.611 543.944L655.611 543.944L654.672 543.6ZM654.672 580.4L653.729 580.734L653.729 580.734L654.672 580.4ZM668.672 580.4L667.739 580.039L667.734 580.052L667.729 580.066L668.672 580.4ZM668.672 543.6L667.733 543.944L667.738 543.958L667.743 543.971L668.672 543.6ZM762.872 519.2L763.746 519.685L764.57 518.2H762.872V519.2ZM683.672 662V663H684.261L684.546 662.485L683.672 662ZM660.272 662L659.397 661.515L658.574 663H660.272V662ZM739.472 519.2V518.2H738.883L738.597 518.715L739.472 519.2ZM780.272 579.6L779.693 580.415L779.7 580.42L779.707 580.425L780.272 579.6ZM791.672 594.8L790.737 595.155L790.741 595.167L790.746 595.178L791.672 594.8ZM787.472 652L788.293 652.571L788.298 652.564L787.472 652ZM742.872 658.4L742.282 659.208L742.293 659.215L742.872 658.4ZM731.672 643L730.735 643.349L730.737 643.355L731.672 643ZM735.872 586L736.695 586.568L736.7 586.561L735.872 586ZM754.672 600.6L753.733 600.256L753.733 600.256L754.672 600.6ZM754.672 637.4L753.729 637.734L753.729 637.734L754.672 637.4ZM768.672 637.6L767.739 637.239L767.736 637.247L767.733 637.256L768.672 637.6ZM768.672 600.6L767.733 600.944L767.738 600.958L767.743 600.971L768.672 600.6ZM661.472 518.2C672.407 518.2 680.549 522.022 686.064 529.589L687.68 528.411C681.728 520.245 672.936 516.2 661.472 516.2V518.2ZM686.075 529.604C691.762 537.1 694.672 547.789 694.672 561.8H696.672C696.672 547.544 693.715 536.366 687.669 528.396L686.075 529.604ZM694.672 561.8C694.672 575.82 691.958 586.662 686.646 594.436L688.298 595.564C693.919 587.338 696.672 576.047 696.672 561.8H694.672ZM686.651 594.429C681.416 601.962 673.099 605.8 661.472 605.8V607.8C673.578 607.8 682.594 603.771 688.293 595.571L686.651 594.429ZM661.472 605.8C654.308 605.8 648.32 604.044 643.451 600.585L642.293 602.215C647.557 605.956 653.969 607.8 661.472 607.8V605.8ZM643.461 600.592C638.709 597.125 635.083 592.161 632.607 585.645L630.737 586.355C633.327 593.172 637.168 598.475 642.282 602.208L643.461 600.592ZM632.609 585.651C630.127 578.989 628.872 571.047 628.872 561.8H626.872C626.872 571.22 628.15 579.411 630.735 586.349L632.609 585.651ZM628.872 561.8C628.872 547.773 631.522 537.069 636.695 529.568L635.049 528.432C629.556 536.397 626.872 547.56 626.872 561.8H628.872ZM636.7 529.561C641.802 522.035 649.982 518.2 661.472 518.2V516.2C649.495 516.2 640.608 520.232 635.044 528.439L636.7 529.561ZM661.672 536.6C659.844 536.6 658.227 537.179 656.871 538.341C655.534 539.487 654.504 541.154 653.733 543.256L655.611 543.944C656.307 542.046 657.177 540.713 658.173 539.859C659.15 539.021 660.3 538.6 661.672 538.6V536.6ZM653.733 543.256C652.204 547.427 651.472 553.705 651.472 562H653.472C653.472 553.762 654.207 547.773 655.611 543.944L653.733 543.256ZM651.472 562C651.472 570.167 652.205 576.438 653.729 580.734L655.614 580.066C654.206 576.095 653.472 570.099 653.472 562H651.472ZM653.729 580.734C654.498 582.899 655.524 584.617 656.859 585.799C658.214 586.999 659.835 587.6 661.672 587.6V585.6C660.309 585.6 659.163 585.168 658.185 584.301C657.186 583.417 656.313 582.034 655.614 580.066L653.729 580.734ZM661.672 587.6C663.509 587.6 665.13 586.999 666.485 585.799C667.819 584.617 668.846 582.899 669.614 580.734L667.729 580.066C667.031 582.034 666.158 583.417 665.159 584.301C664.18 585.168 663.035 585.6 661.672 585.6V587.6ZM669.604 580.761C671.272 576.453 672.072 570.171 672.072 562H670.072C670.072 570.095 669.272 576.08 667.739 580.039L669.604 580.761ZM672.072 562C672.072 553.701 671.273 547.411 669.6 543.229L667.743 543.971C669.27 547.789 670.072 553.765 670.072 562H672.072ZM669.611 543.256C668.84 541.154 667.81 539.487 666.473 538.341C665.117 537.179 663.5 536.6 661.672 536.6V538.6C663.044 538.6 664.194 539.021 665.171 539.859C666.167 540.713 667.037 542.046 667.733 543.944L669.611 543.256ZM761.997 518.715L682.797 661.515L684.546 662.485L763.746 519.685L761.997 518.715ZM683.672 661H660.272V663H683.672V661ZM661.146 662.485L740.346 519.685L738.597 518.715L659.397 661.515L661.146 662.485ZM739.472 520.2H762.872V518.2H739.472V520.2ZM761.472 575.2C768.774 575.2 774.827 576.958 779.693 580.415L780.851 578.785C775.583 575.042 769.103 573.2 761.472 573.2V575.2ZM779.707 580.425C784.579 583.759 788.264 588.648 790.737 595.155L792.607 594.445C790.013 587.619 786.098 582.374 780.837 578.775L779.707 580.425ZM790.746 595.178C793.35 601.558 794.672 609.421 794.672 618.8H796.672C796.672 609.245 795.327 601.109 792.598 594.422L790.746 595.178ZM794.672 618.8C794.672 632.82 791.958 643.662 786.646 651.436L788.298 652.564C793.919 644.338 796.672 633.047 796.672 618.8H794.672ZM786.651 651.429C781.416 658.962 773.099 662.8 761.472 662.8V664.8C773.578 664.8 782.594 660.771 788.293 652.571L786.651 651.429ZM761.472 662.8C754.308 662.8 748.32 661.044 743.451 657.585L742.293 659.215C747.557 662.956 753.969 664.8 761.472 664.8V662.8ZM743.461 657.592C738.709 654.125 735.083 649.161 732.607 642.645L730.737 643.355C733.327 650.172 737.168 655.475 742.282 659.208L743.461 657.592ZM732.609 642.651C730.127 635.989 728.872 628.047 728.872 618.8H726.872C726.872 628.22 728.15 636.411 730.735 643.349L732.609 642.651ZM728.872 618.8C728.872 604.773 731.522 594.069 736.695 586.568L735.049 585.432C729.556 593.397 726.872 604.56 726.872 618.8H728.872ZM736.7 586.561C741.802 579.035 749.982 575.2 761.472 575.2V573.2C749.495 573.2 740.608 577.232 735.044 585.439L736.7 586.561ZM761.672 593.6C759.844 593.6 758.227 594.179 756.871 595.341C755.534 596.487 754.504 598.154 753.733 600.256L755.611 600.944C756.307 599.046 757.177 597.713 758.173 596.859C759.15 596.021 760.3 595.6 761.672 595.6V593.6ZM753.733 600.256C752.204 604.427 751.472 610.705 751.472 619H753.472C753.472 610.762 754.207 604.773 755.611 600.944L753.733 600.256ZM751.472 619C751.472 627.167 752.205 633.438 753.729 637.734L755.614 637.066C754.206 633.095 753.472 627.099 753.472 619H751.472ZM753.729 637.734C754.498 639.899 755.524 641.617 756.859 642.799C758.214 643.999 759.835 644.6 761.672 644.6V642.6C760.309 642.6 759.163 642.168 758.185 641.301C757.186 640.417 756.313 639.034 755.614 637.066L753.729 637.734ZM761.672 644.6C763.5 644.6 765.117 644.021 766.473 642.859C767.81 641.713 768.84 640.046 769.611 637.944L767.733 637.256C767.037 639.154 766.167 640.487 765.171 641.341C764.194 642.179 763.044 642.6 761.672 642.6V644.6ZM769.604 637.961C771.272 633.652 772.072 627.302 772.072 619H770.072C770.072 627.231 769.271 633.281 767.739 637.239L769.604 637.961ZM772.072 619C772.072 610.701 771.273 604.411 769.6 600.229L767.743 600.971C769.27 604.789 770.072 610.765 770.072 619H772.072ZM769.611 600.256C768.84 598.154 767.81 596.487 766.473 595.341C765.117 594.179 763.5 593.6 761.672 593.6V595.6C763.044 595.6 764.194 596.021 765.171 596.859C766.167 597.713 767.037 599.046 767.733 600.944L769.611 600.256Z" fill="url(#paint1_linear_208_6)" mask="url(#path-2-outside-2_208_6)"/>
<defs>
<linearGradient id="paint0_linear_208_6" x1="1.38464e-05" y1="890.648" x2="1185" y2="294.352" gradientUnits="userSpaceOnUse">
<stop stop-color="#71C7FC"/>
<stop offset="1" stop-color="#0035A8"/>
</linearGradient>
<linearGradient id="paint1_linear_208_6" x1="383" y1="657.416" x2="699.779" y2="400.53" gradientUnits="userSpaceOnUse">
<stop stop-color="#71C7FC"/>
<stop offset="1" stop-color="#0035A8"/>
</linearGradient>
</defs>
</svg>
