<svg width="1185" height="1185" viewBox="0 0 1185 1185" fill="none" xmlns="http://www.w3.org/2000/svg">
<mask id="path-1-inside-1_208_17" fill="white">
<path d="M1091.22 405.858C1122.25 394.244 1157.15 409.943 1165.57 441.993C1196.94 561.44 1190.32 688.265 1145.77 804.518C1094.03 939.528 994.712 1050.96 866.52 1117.83C738.329 1184.69 590.111 1202.38 449.784 1167.56C309.458 1132.73 186.708 1047.8 104.656 928.75C22.6029 809.705 -13.0892 664.766 4.30181 521.232C21.6928 377.698 90.9667 245.477 199.075 149.473C307.184 53.468 446.666 0.306563 591.249 0.00132042C715.745 -0.261515 836.625 38.6811 937.088 110.507C964.044 129.78 966.298 167.976 944.4 192.847L938.117 199.982C916.219 224.852 878.485 226.886 850.994 208.385C774.694 157.037 684.396 129.312 591.523 129.508C478.542 129.747 369.548 171.288 285.069 246.308C200.591 321.328 146.458 424.649 132.869 536.81C119.279 648.97 147.17 762.229 211.287 855.253C275.405 948.278 371.325 1014.65 480.979 1041.86C590.633 1069.07 706.454 1055.25 806.626 1003C906.798 950.751 984.407 863.675 1024.84 758.175C1058.07 671.451 1064.29 577.199 1043.46 487.62C1035.95 455.345 1051.28 420.805 1082.32 409.191L1091.22 405.858Z"/>
</mask>
<path d="M1091.22 405.858C1122.25 394.244 1157.15 409.943 1165.57 441.993C1196.94 561.44 1190.32 688.265 1145.77 804.518C1094.03 939.528 994.712 1050.96 866.52 1117.83C738.329 1184.69 590.111 1202.38 449.784 1167.56C309.458 1132.73 186.708 1047.8 104.656 928.75C22.6029 809.705 -13.0892 664.766 4.30181 521.232C21.6928 377.698 90.9667 245.477 199.075 149.473C307.184 53.468 446.666 0.306563 591.249 0.00132042C715.745 -0.261515 836.625 38.6811 937.088 110.507C964.044 129.78 966.298 167.976 944.4 192.847L938.117 199.982C916.219 224.852 878.485 226.886 850.994 208.385C774.694 157.037 684.396 129.312 591.523 129.508C478.542 129.747 369.548 171.288 285.069 246.308C200.591 321.328 146.458 424.649 132.869 536.81C119.279 648.97 147.17 762.229 211.287 855.253C275.405 948.278 371.325 1014.65 480.979 1041.86C590.633 1069.07 706.454 1055.25 806.626 1003C906.798 950.751 984.407 863.675 1024.84 758.175C1058.07 671.451 1064.29 577.199 1043.46 487.62C1035.95 455.345 1051.28 420.805 1082.32 409.191L1091.22 405.858Z" stroke="url(#paint0_linear_208_17)" stroke-width="240" mask="url(#path-1-inside-1_208_17)"/>
<mask id="path-2-outside-2_208_17" maskUnits="userSpaceOnUse" x="388" y="516" width="426" height="150" fill="black">
<rect fill="white" x="388" y="516" width="426" height="150"/>
<path d="M389 574C389 566.533 390.333 559.6 393 553.2C395.8 546.8 399.6 541.333 404.4 536.8C409.2 532.133 414.867 528.533 421.4 526C427.933 523.333 435 522 442.6 522C450.333 522 457.467 523.333 464 526C470.533 528.533 476.2 532.067 481 536.6C485.8 541.133 489.533 546.533 492.2 552.8C494.867 558.933 496.2 565.667 496.2 573C496.2 579.533 495 586.267 492.6 593.2C490.333 600.133 487.267 606.733 483.4 613L452.6 662H410.2L440.4 619.2C438.933 620 436.533 620.4 433.2 620.4C426.667 620.4 420.667 619.2 415.2 616.8C409.867 614.4 405.2 611.133 401.2 607C397.333 602.733 394.333 597.8 392.2 592.2C390.067 586.467 389 580.4 389 574ZM424.2 572.6C424.2 575.133 424.667 577.533 425.6 579.8C426.533 581.933 427.867 583.867 429.6 585.6C431.333 587.2 433.267 588.467 435.4 589.4C437.667 590.333 440.133 590.8 442.8 590.8C445.333 590.8 447.733 590.333 450 589.4C452.267 588.467 454.2 587.2 455.8 585.6C457.533 584 458.867 582.133 459.8 580C460.733 577.733 461.2 575.333 461.2 572.8C461.2 567.733 459.4 563.467 455.8 560C452.333 556.4 448 554.6 442.8 554.6C440.133 554.6 437.667 555.067 435.4 556C433.267 556.933 431.333 558.2 429.6 559.8C427.867 561.4 426.533 563.333 425.6 565.6C424.667 567.733 424.2 570.067 424.2 572.6ZM631.141 593.4C631.141 602.867 629.807 611.933 627.141 620.6C624.474 629.133 620.541 636.733 615.341 643.4C610.274 649.933 603.941 655.133 596.341 659C588.874 662.867 580.207 664.8 570.341 664.8C560.474 664.8 551.741 662.867 544.141 659C536.541 655.133 530.141 649.933 524.941 643.4C519.874 636.733 516.007 629.133 513.341 620.6C510.674 611.933 509.341 602.867 509.341 593.4C509.341 583.933 510.674 574.933 513.341 566.4C516.007 557.733 519.874 550.133 524.941 543.6C530.141 536.933 536.541 531.667 544.141 527.8C551.741 523.933 560.474 522 570.341 522C580.207 522 588.874 523.933 596.341 527.8C603.941 531.667 610.274 536.933 615.341 543.6C620.541 550.133 624.474 557.733 627.141 566.4C629.807 574.933 631.141 583.933 631.141 593.4ZM593.941 593.4C593.941 588.733 593.474 584.2 592.541 579.8C591.607 575.4 590.141 571.467 588.141 568C586.274 564.533 583.874 561.8 580.941 559.8C578.007 557.667 574.474 556.6 570.341 556.6C566.207 556.6 562.607 557.667 559.541 559.8C556.607 561.8 554.141 564.533 552.141 568C550.274 571.467 548.874 575.4 547.941 579.8C547.007 584.2 546.541 588.733 546.541 593.4C546.541 598.067 547.007 602.6 547.941 607C548.874 611.4 550.274 615.333 552.141 618.8C554.141 622.267 556.607 625.067 559.541 627.2C562.607 629.2 566.207 630.2 570.341 630.2C574.474 630.2 578.007 629.2 580.941 627.2C583.874 625.067 586.274 622.267 588.141 618.8C590.141 615.333 591.607 611.4 592.541 607C593.474 602.6 593.941 598.067 593.941 593.4ZM678.073 517.2C689.273 517.2 697.74 521.133 703.473 529C709.34 536.733 712.273 547.667 712.273 561.8C712.273 575.933 709.54 587 704.073 595C698.607 602.867 689.94 606.8 678.073 606.8C670.74 606.8 664.54 605 659.473 601.4C654.54 597.8 650.807 592.667 648.273 586C645.74 579.2 644.473 571.133 644.473 561.8C644.473 547.667 647.14 536.733 652.473 529C657.807 521.133 666.34 517.2 678.073 517.2ZM678.273 537.6C675.073 537.6 672.74 539.6 671.273 543.6C669.807 547.6 669.073 553.733 669.073 562C669.073 570.133 669.807 576.267 671.273 580.4C672.74 584.533 675.073 586.6 678.273 586.6C681.473 586.6 683.807 584.533 685.273 580.4C686.873 576.267 687.673 570.133 687.673 562C687.673 553.733 686.873 547.6 685.273 543.6C683.807 539.6 681.473 537.6 678.273 537.6ZM779.473 519.2L700.273 662H676.873L756.073 519.2H779.473ZM778.073 574.2C785.54 574.2 791.807 576 796.873 579.6C801.94 583.067 805.74 588.133 808.273 594.8C810.94 601.333 812.273 609.333 812.273 618.8C812.273 632.933 809.54 644 804.073 652C798.607 659.867 789.94 663.8 778.073 663.8C770.74 663.8 764.54 662 759.473 658.4C754.54 654.8 750.807 649.667 748.273 643C745.74 636.2 744.473 628.133 744.473 618.8C744.473 604.667 747.14 593.733 752.473 586C757.807 578.133 766.34 574.2 778.073 574.2ZM778.273 594.6C775.073 594.6 772.74 596.6 771.273 600.6C769.807 604.6 769.073 610.733 769.073 619C769.073 627.133 769.807 633.267 771.273 637.4C772.74 641.533 775.073 643.6 778.273 643.6C781.473 643.6 783.807 641.6 785.273 637.6C786.873 633.467 787.673 627.267 787.673 619C787.673 610.733 786.873 604.6 785.273 600.6C783.807 596.6 781.473 594.6 778.273 594.6Z"/>
</mask>
<path d="M389 574C389 566.533 390.333 559.6 393 553.2C395.8 546.8 399.6 541.333 404.4 536.8C409.2 532.133 414.867 528.533 421.4 526C427.933 523.333 435 522 442.6 522C450.333 522 457.467 523.333 464 526C470.533 528.533 476.2 532.067 481 536.6C485.8 541.133 489.533 546.533 492.2 552.8C494.867 558.933 496.2 565.667 496.2 573C496.2 579.533 495 586.267 492.6 593.2C490.333 600.133 487.267 606.733 483.4 613L452.6 662H410.2L440.4 619.2C438.933 620 436.533 620.4 433.2 620.4C426.667 620.4 420.667 619.2 415.2 616.8C409.867 614.4 405.2 611.133 401.2 607C397.333 602.733 394.333 597.8 392.2 592.2C390.067 586.467 389 580.4 389 574ZM424.2 572.6C424.2 575.133 424.667 577.533 425.6 579.8C426.533 581.933 427.867 583.867 429.6 585.6C431.333 587.2 433.267 588.467 435.4 589.4C437.667 590.333 440.133 590.8 442.8 590.8C445.333 590.8 447.733 590.333 450 589.4C452.267 588.467 454.2 587.2 455.8 585.6C457.533 584 458.867 582.133 459.8 580C460.733 577.733 461.2 575.333 461.2 572.8C461.2 567.733 459.4 563.467 455.8 560C452.333 556.4 448 554.6 442.8 554.6C440.133 554.6 437.667 555.067 435.4 556C433.267 556.933 431.333 558.2 429.6 559.8C427.867 561.4 426.533 563.333 425.6 565.6C424.667 567.733 424.2 570.067 424.2 572.6ZM631.141 593.4C631.141 602.867 629.807 611.933 627.141 620.6C624.474 629.133 620.541 636.733 615.341 643.4C610.274 649.933 603.941 655.133 596.341 659C588.874 662.867 580.207 664.8 570.341 664.8C560.474 664.8 551.741 662.867 544.141 659C536.541 655.133 530.141 649.933 524.941 643.4C519.874 636.733 516.007 629.133 513.341 620.6C510.674 611.933 509.341 602.867 509.341 593.4C509.341 583.933 510.674 574.933 513.341 566.4C516.007 557.733 519.874 550.133 524.941 543.6C530.141 536.933 536.541 531.667 544.141 527.8C551.741 523.933 560.474 522 570.341 522C580.207 522 588.874 523.933 596.341 527.8C603.941 531.667 610.274 536.933 615.341 543.6C620.541 550.133 624.474 557.733 627.141 566.4C629.807 574.933 631.141 583.933 631.141 593.4ZM593.941 593.4C593.941 588.733 593.474 584.2 592.541 579.8C591.607 575.4 590.141 571.467 588.141 568C586.274 564.533 583.874 561.8 580.941 559.8C578.007 557.667 574.474 556.6 570.341 556.6C566.207 556.6 562.607 557.667 559.541 559.8C556.607 561.8 554.141 564.533 552.141 568C550.274 571.467 548.874 575.4 547.941 579.8C547.007 584.2 546.541 588.733 546.541 593.4C546.541 598.067 547.007 602.6 547.941 607C548.874 611.4 550.274 615.333 552.141 618.8C554.141 622.267 556.607 625.067 559.541 627.2C562.607 629.2 566.207 630.2 570.341 630.2C574.474 630.2 578.007 629.2 580.941 627.2C583.874 625.067 586.274 622.267 588.141 618.8C590.141 615.333 591.607 611.4 592.541 607C593.474 602.6 593.941 598.067 593.941 593.4ZM678.073 517.2C689.273 517.2 697.74 521.133 703.473 529C709.34 536.733 712.273 547.667 712.273 561.8C712.273 575.933 709.54 587 704.073 595C698.607 602.867 689.94 606.8 678.073 606.8C670.74 606.8 664.54 605 659.473 601.4C654.54 597.8 650.807 592.667 648.273 586C645.74 579.2 644.473 571.133 644.473 561.8C644.473 547.667 647.14 536.733 652.473 529C657.807 521.133 666.34 517.2 678.073 517.2ZM678.273 537.6C675.073 537.6 672.74 539.6 671.273 543.6C669.807 547.6 669.073 553.733 669.073 562C669.073 570.133 669.807 576.267 671.273 580.4C672.74 584.533 675.073 586.6 678.273 586.6C681.473 586.6 683.807 584.533 685.273 580.4C686.873 576.267 687.673 570.133 687.673 562C687.673 553.733 686.873 547.6 685.273 543.6C683.807 539.6 681.473 537.6 678.273 537.6ZM779.473 519.2L700.273 662H676.873L756.073 519.2H779.473ZM778.073 574.2C785.54 574.2 791.807 576 796.873 579.6C801.94 583.067 805.74 588.133 808.273 594.8C810.94 601.333 812.273 609.333 812.273 618.8C812.273 632.933 809.54 644 804.073 652C798.607 659.867 789.94 663.8 778.073 663.8C770.74 663.8 764.54 662 759.473 658.4C754.54 654.8 750.807 649.667 748.273 643C745.74 636.2 744.473 628.133 744.473 618.8C744.473 604.667 747.14 593.733 752.473 586C757.807 578.133 766.34 574.2 778.073 574.2ZM778.273 594.6C775.073 594.6 772.74 596.6 771.273 600.6C769.807 604.6 769.073 610.733 769.073 619C769.073 627.133 769.807 633.267 771.273 637.4C772.74 641.533 775.073 643.6 778.273 643.6C781.473 643.6 783.807 641.6 785.273 637.6C786.873 633.467 787.673 627.267 787.673 619C787.673 610.733 786.873 604.6 785.273 600.6C783.807 596.6 781.473 594.6 778.273 594.6Z" fill="white"/>
<path d="M393 553.2L392.084 552.799L392.08 552.807L392.077 552.815L393 553.2ZM404.4 536.8L405.087 537.527L405.092 537.522L405.097 537.517L404.4 536.8ZM421.4 526L421.762 526.932L421.77 526.929L421.778 526.926L421.4 526ZM464 526L463.622 526.926L463.63 526.929L463.638 526.932L464 526ZM481 536.6L480.313 537.327L480.313 537.327L481 536.6ZM492.2 552.8L491.28 553.192L491.283 553.199L492.2 552.8ZM492.6 593.2L491.655 592.873L491.652 592.881L491.65 592.889L492.6 593.2ZM483.4 613L484.247 613.532L484.251 613.525L483.4 613ZM452.6 662V663H453.153L453.447 662.532L452.6 662ZM410.2 662L409.383 661.423L408.271 663H410.2V662ZM440.4 619.2L441.217 619.777L439.921 618.322L440.4 619.2ZM415.2 616.8L414.79 617.712L414.798 617.716L415.2 616.8ZM401.2 607L400.459 607.672L400.47 607.684L400.481 607.695L401.2 607ZM392.2 592.2L391.263 592.549L391.266 592.556L392.2 592.2ZM425.6 579.8L424.675 580.181L424.679 580.191L424.684 580.201L425.6 579.8ZM429.6 585.6L428.893 586.307L428.907 586.321L428.922 586.335L429.6 585.6ZM435.4 589.4L434.999 590.316L435.009 590.321L435.019 590.325L435.4 589.4ZM450 589.4L449.619 588.475L449.619 588.475L450 589.4ZM455.8 585.6L455.122 584.865L455.107 584.879L455.093 584.893L455.8 585.6ZM459.8 580L460.716 580.401L460.721 580.391L460.725 580.381L459.8 580ZM455.8 560L455.08 560.694L455.093 560.707L455.106 560.72L455.8 560ZM435.4 556L435.019 555.075L435.009 555.079L434.999 555.084L435.4 556ZM429.6 559.8L428.922 559.065L428.922 559.065L429.6 559.8ZM425.6 565.6L426.516 566.001L426.521 565.991L426.525 565.981L425.6 565.6ZM390 574C390 566.655 391.311 559.854 393.923 553.585L392.077 552.815C389.356 559.346 388 566.412 388 574H390ZM393.916 553.601C396.666 547.317 400.39 541.963 405.087 537.527L403.713 536.073C398.81 540.704 394.934 546.283 392.084 552.799L393.916 553.601ZM405.097 537.517C409.796 532.948 415.347 529.419 421.762 526.932L421.038 525.068C414.386 527.647 408.604 531.318 403.703 536.083L405.097 537.517ZM421.778 526.926C428.182 524.312 435.12 523 442.6 523V521C434.88 521 427.684 522.355 421.022 525.074L421.778 526.926ZM442.6 523C450.216 523 457.22 524.313 463.622 526.926L464.378 525.074C457.714 522.354 450.45 521 442.6 521V523ZM463.638 526.932C470.059 529.422 475.613 532.888 480.313 537.327L481.687 535.873C476.787 531.245 471.008 527.645 464.362 525.068L463.638 526.932ZM480.313 537.327C485.01 541.763 488.665 547.047 491.28 553.192L493.12 552.408C490.401 546.019 486.59 540.504 481.687 535.873L480.313 537.327ZM491.283 553.199C493.89 559.195 495.2 565.791 495.2 573H497.2C497.2 565.543 495.844 558.672 493.117 552.401L491.283 553.199ZM495.2 573C495.2 579.409 494.023 586.032 491.655 592.873L493.545 593.527C495.977 586.501 497.2 579.657 497.2 573H495.2ZM491.65 592.889C489.408 599.747 486.375 606.275 482.549 612.475L484.251 613.525C488.159 607.192 491.259 600.52 493.551 593.511L491.65 592.889ZM482.553 612.468L451.753 661.468L453.447 662.532L484.247 613.532L482.553 612.468ZM452.6 661H410.2V663H452.6V661ZM411.017 662.577L441.217 619.777L439.583 618.623L409.383 661.423L411.017 662.577ZM439.921 618.322C438.686 618.996 436.501 619.4 433.2 619.4V621.4C436.565 621.4 439.18 621.004 440.879 620.078L439.921 618.322ZM433.2 619.4C426.792 619.4 420.93 618.224 415.602 615.884L414.798 617.716C420.403 620.176 426.541 621.4 433.2 621.4V619.4ZM415.61 615.888C410.391 613.539 405.829 610.345 401.919 606.305L400.481 607.695C404.571 611.921 409.343 615.261 414.79 617.712L415.61 615.888ZM401.941 606.328C398.161 602.158 395.225 597.333 393.134 591.844L391.266 592.556C393.441 598.267 396.505 603.309 400.459 607.672L401.941 606.328ZM393.137 591.851C391.047 586.235 390 580.287 390 574H388C388 580.513 389.086 586.699 391.263 592.549L393.137 591.851ZM423.2 572.6C423.2 575.259 423.691 577.789 424.675 580.181L426.525 579.419C425.643 577.277 425.2 575.007 425.2 572.6H423.2ZM424.684 580.201C425.67 582.454 427.076 584.49 428.893 586.307L430.307 584.893C428.657 583.243 427.397 581.412 426.516 579.399L424.684 580.201ZM428.922 586.335C430.736 588.009 432.763 589.338 434.999 590.316L435.801 588.484C433.771 587.596 431.931 586.391 430.278 584.865L428.922 586.335ZM435.019 590.325C437.417 591.312 440.014 591.8 442.8 591.8V589.8C440.252 589.8 437.916 589.355 435.781 588.475L435.019 590.325ZM442.8 591.8C445.459 591.8 447.989 591.309 450.381 590.325L449.619 588.475C447.477 589.357 445.207 589.8 442.8 589.8V591.8ZM450.381 590.325C452.759 589.345 454.806 588.008 456.507 586.307L455.093 584.893C453.594 586.392 451.774 587.588 449.619 588.475L450.381 590.325ZM456.478 586.335C458.312 584.642 459.727 582.662 460.716 580.401L458.884 579.599C458.007 581.604 456.755 583.358 455.122 584.865L456.478 586.335ZM460.725 580.381C461.709 577.989 462.2 575.459 462.2 572.8H460.2C460.2 575.207 459.757 577.477 458.875 579.619L460.725 580.381ZM462.2 572.8C462.2 567.466 460.292 562.938 456.494 559.28L455.106 560.72C458.508 563.996 460.2 568.001 460.2 572.8H462.2ZM456.52 559.306C452.857 555.502 448.259 553.6 442.8 553.6V555.6C447.741 555.6 451.81 557.298 455.08 560.694L456.52 559.306ZM442.8 553.6C440.014 553.6 437.417 554.088 435.019 555.075L435.781 556.925C437.916 556.045 440.252 555.6 442.8 555.6V553.6ZM434.999 555.084C432.763 556.062 430.736 557.391 428.922 559.065L430.278 560.535C431.931 559.009 433.771 557.804 435.801 556.916L434.999 555.084ZM428.922 559.065C427.077 560.768 425.662 562.823 424.675 565.219L426.525 565.981C427.405 563.843 428.656 562.032 430.278 560.535L428.922 559.065ZM424.684 565.199C423.691 567.47 423.2 569.941 423.2 572.6H425.2C425.2 570.192 425.643 567.997 426.516 566.001L424.684 565.199ZM627.141 620.6L628.095 620.898L628.096 620.894L627.141 620.6ZM615.341 643.4L614.552 642.785L614.55 642.787L615.341 643.4ZM596.341 659L595.887 658.109L595.881 658.112L596.341 659ZM544.141 659L543.687 659.891L543.687 659.891L544.141 659ZM524.941 643.4L524.144 644.005L524.151 644.014L524.158 644.023L524.941 643.4ZM513.341 620.6L512.385 620.894L512.386 620.898L513.341 620.6ZM513.341 566.4L514.295 566.698L514.296 566.694L513.341 566.4ZM524.941 543.6L524.152 542.985L524.15 542.987L524.941 543.6ZM544.141 527.8L544.594 528.691L544.594 528.691L544.141 527.8ZM596.341 527.8L595.881 528.688L595.887 528.691L596.341 527.8ZM615.341 543.6L614.544 544.205L614.551 544.214L614.558 544.223L615.341 543.6ZM627.141 566.4L626.185 566.694L626.186 566.698L627.141 566.4ZM592.541 579.8L591.562 580.008L591.562 580.008L592.541 579.8ZM588.141 568L587.26 568.474L587.267 568.487L587.274 568.5L588.141 568ZM580.941 559.8L580.352 560.609L580.365 560.618L580.377 560.626L580.941 559.8ZM559.541 559.8L560.104 560.626L560.112 560.621L559.541 559.8ZM552.141 568L551.274 567.5L551.267 567.513L551.26 567.526L552.141 568ZM547.941 579.8L548.919 580.008L548.919 580.008L547.941 579.8ZM547.941 607L546.962 607.208L546.962 607.208L547.941 607ZM552.141 618.8L551.26 619.274L551.267 619.287L551.274 619.3L552.141 618.8ZM559.541 627.2L558.952 628.009L558.973 628.024L558.994 628.038L559.541 627.2ZM580.941 627.2L581.504 628.026L581.517 628.018L581.529 628.009L580.941 627.2ZM588.141 618.8L587.274 618.3L587.267 618.313L587.26 618.326L588.141 618.8ZM592.541 607L593.519 607.208L593.519 607.208L592.541 607ZM630.141 593.4C630.141 602.771 628.821 611.739 626.185 620.306L628.096 620.894C630.794 612.128 632.141 602.962 632.141 593.4H630.141ZM626.186 620.302C623.553 628.727 619.674 636.218 614.552 642.785L616.129 644.015C621.407 637.248 625.395 629.54 628.095 620.898L626.186 620.302ZM614.55 642.787C609.577 649.2 603.36 654.307 595.887 658.109L596.794 659.891C604.521 655.96 610.971 650.666 616.131 644.013L614.55 642.787ZM595.881 658.112C588.579 661.893 580.075 663.8 570.341 663.8V665.8C580.34 665.8 589.169 663.84 596.8 659.888L595.881 658.112ZM570.341 663.8C560.607 663.8 552.033 661.893 544.594 658.109L543.687 659.891C551.448 663.84 560.341 665.8 570.341 665.8V663.8ZM544.594 658.109C537.119 654.306 530.832 649.196 525.723 642.777L524.158 644.023C529.449 650.671 535.962 655.961 543.687 659.891L544.594 658.109ZM525.737 642.795C520.745 636.227 516.93 628.732 514.295 620.302L512.386 620.898C515.085 629.535 519.003 637.24 524.144 644.005L525.737 642.795ZM514.296 620.306C511.66 611.739 510.341 602.771 510.341 593.4H508.341C508.341 602.962 509.688 612.128 512.385 620.894L514.296 620.306ZM510.341 593.4C510.341 584.029 511.66 575.13 514.295 566.698L512.386 566.102C509.688 574.737 508.341 583.838 508.341 593.4H510.341ZM514.296 566.694C516.931 558.132 520.745 550.642 525.731 544.213L524.15 542.987C519.003 549.625 515.084 557.335 512.385 566.106L514.296 566.694ZM525.729 544.215C530.838 537.665 537.123 532.492 544.594 528.691L543.687 526.909C535.958 530.841 529.443 536.202 524.152 542.985L525.729 544.215ZM544.594 528.691C552.033 524.907 560.607 523 570.341 523V521C560.341 521 551.448 522.96 543.687 526.909L544.594 528.691ZM570.341 523C580.075 523 588.579 524.907 595.881 528.688L596.8 526.912C589.169 522.96 580.34 521 570.341 521V523ZM595.887 528.691C603.355 532.491 609.571 537.661 614.544 544.205L616.137 542.995C610.977 536.206 604.526 530.842 596.794 526.909L595.887 528.691ZM614.558 544.223C619.674 550.65 623.552 558.137 626.185 566.694L628.096 566.106C625.396 557.33 621.407 549.616 616.123 542.977L614.558 544.223ZM626.186 566.698C628.821 575.13 630.141 584.029 630.141 593.4H632.141C632.141 583.838 630.794 574.737 628.095 566.102L626.186 566.698ZM594.941 593.4C594.941 588.666 594.467 584.063 593.519 579.592L591.562 580.008C592.481 584.337 592.941 588.8 592.941 593.4H594.941ZM593.519 579.592C592.566 575.102 591.065 571.068 589.007 567.5L587.274 568.5C589.216 571.865 590.648 575.698 591.562 580.008L593.519 579.592ZM589.021 567.526C587.087 563.934 584.584 561.074 581.504 558.974L580.377 560.626C583.164 562.526 585.461 565.133 587.26 568.474L589.021 567.526ZM581.529 558.991C578.401 556.717 574.655 555.6 570.341 555.6V557.6C574.293 557.6 577.613 558.617 580.352 560.609L581.529 558.991ZM570.341 555.6C566.026 555.6 562.222 556.717 558.97 558.979L560.112 560.621C562.993 558.616 566.389 557.6 570.341 557.6V555.6ZM558.977 558.974C555.905 561.069 553.34 563.92 551.274 567.5L553.007 568.5C554.941 565.147 557.31 562.531 560.104 560.626L558.977 558.974ZM551.26 567.526C549.343 571.087 547.913 575.112 546.962 579.592L548.919 580.008C549.835 575.688 551.205 571.846 553.021 568.474L551.26 567.526ZM546.962 579.592C546.014 584.063 545.541 588.666 545.541 593.4H547.541C547.541 588.8 548.001 584.337 548.919 580.008L546.962 579.592ZM545.541 593.4C545.541 598.134 546.014 602.737 546.962 607.208L548.919 606.792C548.001 602.463 547.541 598 547.541 593.4H545.541ZM546.962 607.208C547.913 611.688 549.343 615.713 551.26 619.274L553.021 618.326C551.205 614.954 549.835 611.112 548.919 606.792L546.962 607.208ZM551.274 619.3C553.337 622.875 555.895 625.785 558.952 628.009L560.129 626.391C557.32 624.348 554.944 621.658 553.007 618.3L551.274 619.3ZM558.994 628.038C562.244 630.157 566.039 631.2 570.341 631.2V629.2C566.375 629.2 562.971 628.243 560.087 626.362L558.994 628.038ZM570.341 631.2C574.641 631.2 578.379 630.157 581.504 628.026L580.377 626.374C577.636 628.243 574.307 629.2 570.341 629.2V631.2ZM581.529 628.009C584.594 625.78 587.09 622.861 589.021 619.274L587.26 618.326C585.458 621.672 583.154 624.354 580.352 626.391L581.529 628.009ZM589.007 619.3C591.065 615.732 592.566 611.698 593.519 607.208L591.562 606.792C590.648 611.102 589.216 614.935 587.274 618.3L589.007 619.3ZM593.519 607.208C594.467 602.737 594.941 598.134 594.941 593.4H592.941C592.941 598 592.481 602.463 591.562 606.792L593.519 607.208ZM703.473 529L702.665 529.589L702.671 529.597L702.677 529.604L703.473 529ZM704.073 595L704.895 595.571L704.899 595.564L704.073 595ZM659.473 601.4L658.884 602.208L658.894 602.215L659.473 601.4ZM648.273 586L647.336 586.349L647.339 586.355L648.273 586ZM652.473 529L653.297 529.568L653.301 529.561L652.473 529ZM671.273 543.6L672.212 543.944L672.212 543.944L671.273 543.6ZM671.273 580.4L670.331 580.734L670.331 580.734L671.273 580.4ZM685.273 580.4L684.341 580.039L684.336 580.052L684.331 580.066L685.273 580.4ZM685.273 543.6L684.335 543.944L684.34 543.958L684.345 543.971L685.273 543.6ZM779.473 519.2L780.348 519.685L781.172 518.2H779.473V519.2ZM700.273 662V663H700.862L701.148 662.485L700.273 662ZM676.873 662L675.999 661.515L675.175 663H676.873V662ZM756.073 519.2V518.2H755.485L755.199 518.715L756.073 519.2ZM796.873 579.6L796.294 580.415L796.301 580.42L796.309 580.425L796.873 579.6ZM808.273 594.8L807.339 595.155L807.343 595.167L807.348 595.178L808.273 594.8ZM804.073 652L804.895 652.571L804.899 652.564L804.073 652ZM759.473 658.4L758.884 659.208L758.894 659.215L759.473 658.4ZM748.273 643L747.336 643.349L747.339 643.355L748.273 643ZM752.473 586L753.297 586.568L753.301 586.561L752.473 586ZM771.273 600.6L770.335 600.256L770.335 600.256L771.273 600.6ZM771.273 637.4L770.331 637.734L770.331 637.734L771.273 637.4ZM785.273 637.6L784.341 637.239L784.338 637.247L784.335 637.256L785.273 637.6ZM785.273 600.6L784.335 600.944L784.34 600.958L784.345 600.971L785.273 600.6ZM678.073 518.2C689.009 518.2 697.15 522.022 702.665 529.589L704.282 528.411C698.33 520.245 689.538 516.2 678.073 516.2V518.2ZM702.677 529.604C708.363 537.1 711.273 547.789 711.273 561.8H713.273C713.273 547.544 710.317 536.366 704.27 528.396L702.677 529.604ZM711.273 561.8C711.273 575.82 708.56 586.662 703.248 594.436L704.899 595.564C710.52 587.338 713.273 576.047 713.273 561.8H711.273ZM703.252 594.429C698.018 601.962 689.701 605.8 678.073 605.8V607.8C690.179 607.8 699.196 603.771 704.895 595.571L703.252 594.429ZM678.073 605.8C670.909 605.8 664.921 604.044 660.053 600.585L658.894 602.215C664.159 605.956 670.571 607.8 678.073 607.8V605.8ZM660.063 600.592C655.311 597.125 651.685 592.161 649.208 585.645L647.339 586.355C649.929 593.172 653.769 598.475 658.884 602.208L660.063 600.592ZM649.211 585.651C646.729 578.989 645.473 571.047 645.473 561.8H643.473C643.473 571.22 644.751 579.411 647.336 586.349L649.211 585.651ZM645.473 561.8C645.473 547.773 648.123 537.069 653.297 529.568L651.65 528.432C646.157 536.397 643.473 547.56 643.473 561.8H645.473ZM653.301 529.561C658.404 522.035 666.583 518.2 678.073 518.2V516.2C666.097 516.2 657.21 520.232 651.646 528.439L653.301 529.561ZM678.273 536.6C676.445 536.6 674.829 537.179 673.473 538.341C672.135 539.487 671.105 541.154 670.335 543.256L672.212 543.944C672.908 542.046 673.778 540.713 674.774 539.859C675.752 539.021 676.901 538.6 678.273 538.6V536.6ZM670.335 543.256C668.805 547.427 668.073 553.705 668.073 562H670.073C670.073 553.762 670.808 547.773 672.212 543.944L670.335 543.256ZM668.073 562C668.073 570.167 668.806 576.438 670.331 580.734L672.216 580.066C670.807 576.095 670.073 570.099 670.073 562H668.073ZM670.331 580.734C671.099 582.899 672.126 584.617 673.46 585.799C674.815 586.999 676.436 587.6 678.273 587.6V585.6C676.911 585.6 675.765 585.168 674.786 584.301C673.788 583.417 672.914 582.034 672.216 580.066L670.331 580.734ZM678.273 587.6C680.111 587.6 681.732 586.999 683.086 585.799C684.421 584.617 685.448 582.899 686.216 580.734L684.331 580.066C683.632 582.034 682.759 583.417 681.76 584.301C680.782 585.168 679.636 585.6 678.273 585.6V587.6ZM686.206 580.761C687.874 576.453 688.673 570.171 688.673 562H686.673C686.673 570.095 685.873 576.08 684.341 580.039L686.206 580.761ZM688.673 562C688.673 553.701 687.875 547.411 686.202 543.229L684.345 543.971C685.872 547.789 686.673 553.765 686.673 562H688.673ZM686.212 543.256C685.442 541.154 684.411 539.487 683.074 538.341C681.718 537.179 680.101 536.6 678.273 536.6V538.6C679.645 538.6 680.795 539.021 681.773 539.859C682.769 540.713 683.639 542.046 684.335 543.944L686.212 543.256ZM778.599 518.715L699.399 661.515L701.148 662.485L780.348 519.685L778.599 518.715ZM700.273 661H676.873V663H700.273V661ZM677.748 662.485L756.948 519.685L755.199 518.715L675.999 661.515L677.748 662.485ZM756.073 520.2H779.473V518.2H756.073V520.2ZM778.073 575.2C785.375 575.2 791.429 576.958 796.294 580.415L797.453 578.785C792.185 575.042 785.705 573.2 778.073 573.2V575.2ZM796.309 580.425C801.181 583.759 804.866 588.648 807.339 595.155L809.208 594.445C806.614 587.619 802.699 582.374 797.438 578.775L796.309 580.425ZM807.348 595.178C809.952 601.558 811.273 609.421 811.273 618.8H813.273C813.273 609.245 811.929 601.109 809.199 594.422L807.348 595.178ZM811.273 618.8C811.273 632.82 808.56 643.662 803.248 651.436L804.899 652.564C810.52 644.338 813.273 633.047 813.273 618.8H811.273ZM803.252 651.429C798.018 658.962 789.701 662.8 778.073 662.8V664.8C790.179 664.8 799.196 660.771 804.895 652.571L803.252 651.429ZM778.073 662.8C770.909 662.8 764.921 661.044 760.053 657.585L758.894 659.215C764.159 662.956 770.571 664.8 778.073 664.8V662.8ZM760.063 657.592C755.311 654.125 751.685 649.161 749.208 642.645L747.339 643.355C749.929 650.172 753.769 655.475 758.884 659.208L760.063 657.592ZM749.211 642.651C746.729 635.989 745.473 628.047 745.473 618.8H743.473C743.473 628.22 744.751 636.411 747.336 643.349L749.211 642.651ZM745.473 618.8C745.473 604.773 748.123 594.069 753.297 586.568L751.65 585.432C746.157 593.397 743.473 604.56 743.473 618.8H745.473ZM753.301 586.561C758.404 579.035 766.583 575.2 778.073 575.2V573.2C766.097 573.2 757.21 577.232 751.646 585.439L753.301 586.561ZM778.273 593.6C776.445 593.6 774.829 594.179 773.473 595.341C772.135 596.487 771.105 598.154 770.335 600.256L772.212 600.944C772.908 599.046 773.778 597.713 774.774 596.859C775.752 596.021 776.901 595.6 778.273 595.6V593.6ZM770.335 600.256C768.805 604.427 768.073 610.705 768.073 619H770.073C770.073 610.762 770.808 604.773 772.212 600.944L770.335 600.256ZM768.073 619C768.073 627.167 768.806 633.438 770.331 637.734L772.216 637.066C770.807 633.095 770.073 627.099 770.073 619H768.073ZM770.331 637.734C771.099 639.899 772.126 641.617 773.46 642.799C774.815 643.999 776.436 644.6 778.273 644.6V642.6C776.911 642.6 775.765 642.168 774.786 641.301C773.788 640.417 772.914 639.034 772.216 637.066L770.331 637.734ZM778.273 644.6C780.101 644.6 781.718 644.021 783.074 642.859C784.411 641.713 785.442 640.046 786.212 637.944L784.335 637.256C783.639 639.154 782.769 640.487 781.773 641.341C780.795 642.179 779.645 642.6 778.273 642.6V644.6ZM786.206 637.961C787.874 633.652 788.673 627.302 788.673 619H786.673C786.673 627.231 785.873 633.281 784.341 637.239L786.206 637.961ZM788.673 619C788.673 610.701 787.875 604.411 786.202 600.229L784.345 600.971C785.872 604.789 786.673 610.765 786.673 619H788.673ZM786.212 600.256C785.442 598.154 784.411 596.487 783.074 595.341C781.718 594.179 780.101 593.6 778.273 593.6V595.6C779.645 595.6 780.795 596.021 781.773 596.859C782.769 597.713 783.639 599.046 784.335 600.944L786.212 600.256Z" fill="url(#paint1_linear_208_17)" mask="url(#path-2-outside-2_208_17)"/>
<defs>
<linearGradient id="paint0_linear_208_17" x1="1.38464e-05" y1="890.648" x2="1185" y2="294.352" gradientUnits="userSpaceOnUse">
<stop stop-color="#71C7FC"/>
<stop offset="1" stop-color="#0035A8"/>
</linearGradient>
<linearGradient id="paint1_linear_208_17" x1="383" y1="657.416" x2="702.149" y2="388.108" gradientUnits="userSpaceOnUse">
<stop stop-color="#71C7FC"/>
<stop offset="1" stop-color="#0035A8"/>
</linearGradient>
</defs>
</svg>
